{
.appVersion = "99";
date = "2020-01-13 12:48:27 +0000";
designer = "Dakota Felder";
designerURL = www.dakotafelder.com;
familyName = "Open Gorton";
featurePrefixes = (
{
automatic = 1;
code = "languagesystem DFLT dflt;\012";
name = Languagesystems;
}
);
fontMaster = (
{
ascender = 800;
capHeight = 700;
descender = -200;
id = "15BDFF71-2BAF-4479-A38F-4FA7A571BE82";
userData = {
GSCornerRadius = 70;
GSOffsetHorizontal = -3;
GSOffsetProportional = 1;
GSOffsetVertical = -20;
};
weightValue = 0;
widthValue = 0;
xHeight = 500;
}
);
glyphs = (
{
glyphname = A;
lastChange = "2020-01-20 10:59:39 +0000";
layers = (
{
backgroundImage = {
crop = "{{0, 0}, {95, 127}}";
imagePath = images/A.jpg;
locked = "1";
transform = "{8.45473, 0, 0, 8.45473, -39, -206}";
};
layerId = "15BDFF71-2BAF-4479-A38F-4FA7A571BE82";
paths = (
{
closed = 1;
nodes = (
"90 -5 OFFCURVE",
"111 4 OFFCURVE",
"119 23 CURVE SMOOTH",
"187 181 LINE SMOOTH",
"188 184 OFFCURVE",
"192 187 OFFCURVE",
"195 187 CURVE SMOOTH",
"519 187 LINE SMOOTH",
"522 187 OFFCURVE",
"526 184 OFFCURVE",
"527 181 CURVE SMOOTH",
"595 23 LINE SMOOTH",
"603 4 OFFCURVE",
"624 -5 OFFCURVE",
"642 3 CURVE SMOOTH",
"660 11 OFFCURVE",
"669 32 OFFCURVE",
"661 51 CURVE SMOOTH",
"390 688 LINE SMOOTH",
"384 701 OFFCURVE",
"371 709 OFFCURVE",
"357 709 CURVE SMOOTH",
"343 709 OFFCURVE",
"330 701 OFFCURVE",
"324 688 CURVE SMOOTH",
"53 51 LINE SMOOTH",
"45 32 OFFCURVE",
"54 11 OFFCURVE",
"72 3 CURVE SMOOTH"
);
},
{
closed = 1;
nodes = (
"228 258 OFFCURVE",
"223 266 OFFCURVE",
"226 274 CURVE SMOOTH",
"344 552 LINE SMOOTH",
"349 565 OFFCURVE",
"365 565 OFFCURVE",
"370 552 CURVE SMOOTH",
"488 274 LINE SMOOTH",
"491 266 OFFCURVE",
"486 258 OFFCURVE",
"477 258 CURVE SMOOTH",
"237 258 LINE SMOOTH"
);
}
);
width = 714;
}
);
leftMetricsKey = "=H";
rightMetricsKey = "=H";
unicode = 0041;
},
{
glyphname = B;
lastChange = "2020-01-20 10:59:39 +0000";
layers = (
{
backgroundImage = {
crop = "{{0, 0}, {79, 118}}";
imagePath = images/B.jpg;
locked = "1";
transform = "{8.593, 0, 0, 8.593, -70, -166}";
};
layerId = "15BDFF71-2BAF-4479-A38F-4FA7A571BE82";
paths = (
{
closed = 1;
nodes = (
"311 0 LINE SMOOTH",
"424 0 OFFCURVE",
"517 93 OFFCURVE",
"517 207 CURVE SMOOTH",
"517 286 OFFCURVE",
"473 354 OFFCURVE",
"407 389 CURVE SMOOTH",
"399 394 OFFCURVE",
"398 403 OFFCURVE",
"406 409 CURVE SMOOTH",
"447 439 OFFCURVE",
"473 487 OFFCURVE",
"473 541 CURVE SMOOTH",
"473 631 OFFCURVE",
"400 704 OFFCURVE",
"311 704 CURVE SMOOTH",
"86 704 LINE SMOOTH",
"66 704 OFFCURVE",
"50 688 OFFCURVE",
"50 669 CURVE SMOOTH",
"50 36 LINE SMOOTH",
"50 16 OFFCURVE",
"66 0 OFFCURVE",
"86 0 CURVE SMOOTH"
);
},
{
closed = 1;
nodes = (
"125 74 OFFCURVE",
"121 78 OFFCURVE",
"121 84 CURVE SMOOTH",
"121 340 LINE SMOOTH",
"121 346 OFFCURVE",
"125 350 OFFCURVE",
"131 350 CURVE SMOOTH",
"304 350 LINE SMOOTH",
"380 350 OFFCURVE",
"441 288 OFFCURVE",
"441 212 CURVE SMOOTH",
"441 136 OFFCURVE",
"380 74 OFFCURVE",
"304 74 CURVE SMOOTH",
"131 74 LINE SMOOTH"
);
},
{
closed = 1;
nodes = (
"125 422 OFFCURVE",
"121 426 OFFCURVE",
"121 432 CURVE SMOOTH",
"121 624 LINE SMOOTH",
"121 630 OFFCURVE",
"125 634 OFFCURVE",
"131 634 CURVE SMOOTH",
"304 634 LINE SMOOTH",
"362 634 OFFCURVE",
"409 587 OFFCURVE",
"409 528 CURVE SMOOTH",
"409 469 OFFCURVE",
"362 422 OFFCURVE",
"304 422 CURVE SMOOTH",
"131 422 LINE SMOOTH"
);
}
);
width = 567;
}
);
leftMetricsKey = "=H";
rightMetricsKey = "=H";
unicode = 0042;
},
{
glyphname = C;
lastChange = "2020-01-20 10:59:39 +0000";
layers = (
{
backgroundImage = {
crop = "{{0, 0}, {84, 94}}";
imagePath = images/C.jpg;
transform = "{8.39915, 0, 0, 8.39915, -21, -62}";
};
layerId = "15BDFF71-2BAF-4479-A38F-4FA7A571BE82";
paths = (
{
closed = 1;
nodes = (
"480 0 OFFCURVE",
"560 34 OFFCURVE",
"621 89 CURVE SMOOTH",
"645 111 OFFCURVE",
"647 140 OFFCURVE",
"631 150 CURVE SMOOTH",
"614 161 OFFCURVE",
"593 158 OFFCURVE",
"578 143 CURVE SMOOTH",
"529 97 OFFCURVE",
"463 69 OFFCURVE",
"391 69 CURVE SMOOTH",
"240 69 OFFCURVE",
"119 190 OFFCURVE",
"119 341 CURVE SMOOTH",
"119 491 OFFCURVE",
"240 613 OFFCURVE",
"391 613 CURVE SMOOTH",
"459 613 OFFCURVE",
"521 588 OFFCURVE",
"568 547 CURVE SMOOTH",
"584 534 OFFCURVE",
"604 531 OFFCURVE",
"621 542 CURVE SMOOTH",
"622 543 LINE SMOOTH",
"638 554 OFFCURVE",
"634 583 OFFCURVE",
"608 604 CURVE SMOOTH",
"549 653 OFFCURVE",
"473 682 OFFCURVE",
"391 682 CURVE SMOOTH",
"202 682 OFFCURVE",
"50 529 OFFCURVE",
"50 341 CURVE SMOOTH",
"50 152 OFFCURVE",
"202 0 OFFCURVE",
"391 0 CURVE SMOOTH"
);
}
);
width = 691;
}
);
leftMetricsKey = "=H";
rightMetricsKey = "=H";
unicode = 0043;
},
{
glyphname = D;
lastChange = "2020-01-20 10:59:39 +0000";
layers = (
{
backgroundImage = {
crop = "{{0, 0}, {89, 103}}";
imagePath = images/D.jpg;
locked = "1";
transform = "{8.5534, 0, 0, 8.5534, -53, -85}";
};
layerId = "15BDFF71-2BAF-4479-A38F-4FA7A571BE82";
paths = (
{
closed = 1;
nodes = (
"357 0 LINE",
"506 6 OFFCURVE",
"628 161 OFFCURVE",
"628 352 CURVE SMOOTH",
"628 543 OFFCURVE",
"505 698 OFFCURVE",
"357 704 CURVE",
"86 704 LINE SMOOTH",
"66 704 OFFCURVE",
"50 688 OFFCURVE",
"50 669 CURVE SMOOTH",
"50 36 LINE SMOOTH",
"50 16 OFFCURVE",
"66 0 OFFCURVE",
"86 0 CURVE SMOOTH"
);
},
{
closed = 1;
nodes = (
"125 70 OFFCURVE",
"121 74 OFFCURVE",
"121 80 CURVE SMOOTH",
"121 621 LINE SMOOTH",
"121 627 OFFCURVE",
"125 631 OFFCURVE",
"131 631 CURVE SMOOTH",
"343 631 LINE",
"462 626 OFFCURVE",
"559 503 OFFCURVE",
"559 351 CURVE SMOOTH",
"559 199 OFFCURVE",
"461 75 OFFCURVE",
"343 70 CURVE",
"131 70 LINE SMOOTH"
);
}
);
width = 678;
}
);
leftMetricsKey = "=H";
rightMetricsKey = "=H";
unicode = 0044;
},
{
glyphname = E;
lastChange = "2020-01-20 10:59:39 +0000";
layers = (
{
backgroundImage = {
crop = "{{0, 0}, {91, 104}}";
imagePath = images/E.jpg;
locked = "1";
transform = "{8.49965, 0.07668, -0.07668, 8.49965, -93, -72}";
};
layerId = "15BDFF71-2BAF-4479-A38F-4FA7A571BE82";
paths = (
{
closed = 1;
nodes = (
"464 0 LINE SMOOTH",
"483 0 OFFCURVE",
"499 16 OFFCURVE",
"499 36 CURVE SMOOTH",
"499 55 OFFCURVE",
"483 71 OFFCURVE",
"464 71 CURVE SMOOTH",
"131 71 LINE SMOOTH",
"125 71 OFFCURVE",
"121 75 OFFCURVE",
"121 81 CURVE SMOOTH",
"121 329 LINE SMOOTH",
"121 335 OFFCURVE",
"125 339 OFFCURVE",
"131 339 CURVE SMOOTH",
"349 339 LINE SMOOTH",
"368 339 OFFCURVE",
"384 355 OFFCURVE",
"384 375 CURVE SMOOTH",
"384 394 OFFCURVE",
"368 410 OFFCURVE",
"349 410 CURVE SMOOTH",
"131 410 LINE SMOOTH",
"125 410 OFFCURVE",
"121 414 OFFCURVE",
"121 420 CURVE SMOOTH",
"121 623 LINE SMOOTH",
"121 629 OFFCURVE",
"125 633 OFFCURVE",
"131 633 CURVE SMOOTH",
"449 633 LINE SMOOTH",
"468 633 OFFCURVE",
"484 649 OFFCURVE",
"484 669 CURVE SMOOTH",
"484 688 OFFCURVE",
"468 704 OFFCURVE",
"449 704 CURVE SMOOTH",
"85 704 LINE",
"65 703 OFFCURVE",
"50 688 OFFCURVE",
"50 669 CURVE SMOOTH",
"50 36 LINE SMOOTH",
"50 16 OFFCURVE",
"65 1 OFFCURVE",
"85 0 CURVE"
);
}
);
width = 549;
}
);
leftMetricsKey = "=H";
rightMetricsKey = "=H";
unicode = 0045;
},
{
glyphname = F;
lastChange = "2020-01-20 10:59:39 +0000";
layers = (
{
backgroundImage = {
crop = "{{0, 0}, {72, 101}}";
imagePath = images/F.jpg;
locked = "1";
transform = "{8.70613, 0, 0, 8.70613, -54, -77}";
};
layerId = "15BDFF71-2BAF-4479-A38F-4FA7A571BE82";
paths = (
{
closed = 1;
nodes = (
"105 0 OFFCURVE",
"121 16 OFFCURVE",
"121 36 CURVE SMOOTH",
"121 329 LINE SMOOTH",
"121 335 OFFCURVE",
"125 339 OFFCURVE",
"131 339 CURVE SMOOTH",
"349 339 LINE SMOOTH",
"368 339 OFFCURVE",
"384 355 OFFCURVE",
"384 375 CURVE SMOOTH",
"384 394 OFFCURVE",
"368 410 OFFCURVE",
"349 410 CURVE SMOOTH",
"131 410 LINE SMOOTH",
"125 410 OFFCURVE",
"121 414 OFFCURVE",
"121 420 CURVE SMOOTH",
"121 623 LINE SMOOTH",
"121 629 OFFCURVE",
"125 633 OFFCURVE",
"131 633 CURVE SMOOTH",
"449 633 LINE SMOOTH",
"468 633 OFFCURVE",
"484 649 OFFCURVE",
"484 669 CURVE SMOOTH",
"484 688 OFFCURVE",
"468 704 OFFCURVE",
"449 704 CURVE SMOOTH",
"85 704 LINE",
"65 703 OFFCURVE",
"50 688 OFFCURVE",
"50 669 CURVE SMOOTH",
"50 36 LINE SMOOTH",
"50 16 OFFCURVE",
"66 0 OFFCURVE",
"86 0 CURVE SMOOTH"
);
}
);
width = 534;
}
);
leftMetricsKey = "=H";
rightMetricsKey = "=H";
unicode = 0046;
},
{
glyphname = G;
lastChange = "2020-01-20 10:59:39 +0000";
layers = (
{
backgroundImage = {
crop = "{{0, 0}, {97, 105}}";
imagePath = images/G.jpg;
locked = "1";
transform = "{8.776, 0, 0, 8.776, -57, -114}";
};
layerId = "15BDFF71-2BAF-4479-A38F-4FA7A571BE82";
paths = (
{
closed = 1;
nodes = (
"480 0 OFFCURVE",
"558 35 OFFCURVE",
"621 89 CURVE SMOOTH",
"658 121 OFFCURVE",
"660 130 OFFCURVE",
"660 152 CURVE SMOOTH",
"666 344 LINE SMOOTH",
"667 363 OFFCURVE",
"650 379 OFFCURVE",
"631 379 CURVE SMOOTH",
"484 379 LINE",
"464 378 OFFCURVE",
"449 363 OFFCURVE",
"449 344 CURVE SMOOTH",
"449 324 OFFCURVE",
"464 309 OFFCURVE",
"484 308 CURVE",
"574 308 LINE SMOOTH",
"586 308 OFFCURVE",
"595 298 OFFCURVE",
"594 285 CURVE SMOOTH",
"591 167 OFFCURVE",
"602 161 OFFCURVE",
"578 143 CURVE SMOOTH",
"524 102 OFFCURVE",
"463 69 OFFCURVE",
"391 69 CURVE SMOOTH",
"240 69 OFFCURVE",
"119 190 OFFCURVE",
"119 341 CURVE SMOOTH",
"119 491 OFFCURVE",
"240 613 OFFCURVE",
"391 613 CURVE SMOOTH",
"459 613 OFFCURVE",
"521 588 OFFCURVE",
"568 547 CURVE",
"585 533 OFFCURVE",
"604 531 OFFCURVE",
"622 543 CURVE SMOOTH",
"638 554 OFFCURVE",
"634 583 OFFCURVE",
"608 604 CURVE SMOOTH",
"549 653 OFFCURVE",
"473 682 OFFCURVE",
"391 682 CURVE SMOOTH",
"202 682 OFFCURVE",
"50 529 OFFCURVE",
"50 341 CURVE SMOOTH",
"50 152 OFFCURVE",
"202 0 OFFCURVE",
"391 0 CURVE SMOOTH"
);
}
);
width = 716;
}
);
leftMetricsKey = "=H";
rightMetricsKey = "=H";
unicode = 0047;
},
{
glyphname = H;
lastChange = "2020-01-20 10:59:34 +0000";
layers = (
{
backgroundImage = {
crop = "{{0, 0}, {70, 88}}";
imagePath = images/H.jpg;
locked = "1";
transform = "{8.75125, 0, 0, 8.75125, 17, -26}";
};
layerId = "15BDFF71-2BAF-4479-A38F-4FA7A571BE82";
paths = (
{
closed = 1;
nodes = (
"105 0 OFFCURVE",
"121 16 OFFCURVE",
"121 36 CURVE SMOOTH",
"121 348 LINE SMOOTH",
"121 354 OFFCURVE",
"125 358 OFFCURVE",
"131 358 CURVE SMOOTH",
"520 358 LINE SMOOTH",
"526 358 OFFCURVE",
"530 354 OFFCURVE",
"530 348 CURVE SMOOTH",
"530 36 LINE SMOOTH",
"530 16 OFFCURVE",
"546 0 OFFCURVE",
"566 0 CURVE SMOOTH",
"585 0 OFFCURVE",
"601 16 OFFCURVE",
"601 36 CURVE SMOOTH",
"601 669 LINE SMOOTH",
"601 688 OFFCURVE",
"585 704 OFFCURVE",
"566 704 CURVE SMOOTH",
"546 704 OFFCURVE",
"530 688 OFFCURVE",
"530 669 CURVE SMOOTH",
"530 439 LINE SMOOTH",
"530 433 OFFCURVE",
"526 429 OFFCURVE",
"520 429 CURVE SMOOTH",
"131 429 LINE SMOOTH",
"125 429 OFFCURVE",
"121 433 OFFCURVE",
"121 439 CURVE SMOOTH",
"121 669 LINE SMOOTH",
"121 688 OFFCURVE",
"105 704 OFFCURVE",
"86 704 CURVE SMOOTH",
"66 704 OFFCURVE",
"50 688 OFFCURVE",
"50 669 CURVE SMOOTH",
"50 36 LINE SMOOTH",
"50 16 OFFCURVE",
"66 0 OFFCURVE",
"86 0 CURVE SMOOTH"
);
}
);
width = 651;
}
);
unicode = 0048;
},
{
glyphname = I;
lastChange = "2020-01-20 10:59:39 +0000";
layers = (
{
backgroundImage = {
crop = "{{0, 0}, {37, 107}}";
imagePath = images/I.jpg;
locked = "1";
transform = "{8.83, 0, 0, 8.83, -44, -79}";
};
layerId = "15BDFF71-2BAF-4479-A38F-4FA7A571BE82";
paths = (
{
closed = 1;
nodes = (
"121 36 LINE",
"121 669 LINE",
"50 669 LINE",
"50 36 LINE"
);
},
{
closed = 1;
nodes = (
"105 0 OFFCURVE",
"121 16 OFFCURVE",
"121 36 CURVE SMOOTH",
"121 55 OFFCURVE",
"105 71 OFFCURVE",
"86 71 CURVE SMOOTH",
"66 71 OFFCURVE",
"50 55 OFFCURVE",
"50 36 CURVE SMOOTH",
"50 16 OFFCURVE",
"66 0 OFFCURVE",
"86 0 CURVE SMOOTH"
);
},
{
closed = 1;
nodes = (
"105 633 OFFCURVE",
"121 649 OFFCURVE",
"121 669 CURVE SMOOTH",
"121 688 OFFCURVE",
"105 704 OFFCURVE",
"86 704 CURVE SMOOTH",
"66 704 OFFCURVE",
"50 688 OFFCURVE",
"50 669 CURVE SMOOTH",
"50 649 OFFCURVE",
"66 633 OFFCURVE",
"86 633 CURVE SMOOTH"
);
}
);
width = 171;
}
);
leftMetricsKey = "=H";
rightMetricsKey = "=H";
unicode = 0049;
},
{
glyphname = J;
lastChange = "2020-01-20 10:59:39 +0000";
layers = (
{
backgroundImage = {
crop = "{{0, 0}, {104, 132}}";
imagePath = images/J.jpg;
locked = "1";
transform = "{9.33384, 0, 0, 9.33384, -156, -236}";
};
layerId = "15BDFF71-2BAF-4479-A38F-4FA7A571BE82";
paths = (
{
closed = 1;
nodes = (
"446 -37 OFFCURVE",
"569 86 OFFCURVE",
"569 238 CURVE SMOOTH",
"569 669 LINE",
"498 669 LINE",
"498 238 LINE SMOOTH",
"498 126 OFFCURVE",
"406 34 OFFCURVE",
"294 34 CURVE SMOOTH",
"221 34 OFFCURVE",
"157 72 OFFCURVE",
"121 129 CURVE SMOOTH",
"107 151 OFFCURVE",
"88 162 OFFCURVE",
"69 153 CURVE SMOOTH",
"51 144 OFFCURVE",
"44 119 OFFCURVE",
"57 96 CURVE SMOOTH",
"106 16 OFFCURVE",
"193 -37 OFFCURVE",
"294 -37 CURVE SMOOTH"
);
},
{
closed = 1;
nodes = (
"553 633 OFFCURVE",
"569 649 OFFCURVE",
"569 669 CURVE SMOOTH",
"569 688 OFFCURVE",
"553 704 OFFCURVE",
"534 704 CURVE SMOOTH",
"514 704 OFFCURVE",
"498 688 OFFCURVE",
"498 669 CURVE SMOOTH",
"498 649 OFFCURVE",
"514 633 OFFCURVE",
"534 633 CURVE SMOOTH"
);
}
);
width = 619;
}
);
leftMetricsKey = "=H";
rightMetricsKey = "=H";
unicode = 004A;
},
{
glyphname = K;
lastChange = "2020-01-20 10:59:39 +0000";
layers = (
{
backgroundImage = {
crop = "{{0, 0}, {93, 121}}";
imagePath = images/K.jpg;
locked = "1";
transform = "{8.65904, 0, 0, 8.65904, -53, -166}";
};
layerId = "15BDFF71-2BAF-4479-A38F-4FA7A571BE82";
paths = (
{
closed = 1;
nodes = (
"105 0 OFFCURVE",
"121 16 OFFCURVE",
"121 36 CURVE SMOOTH",
"121 230 LINE SMOOTH",
"121 232 OFFCURVE",
"122 236 OFFCURVE",
"124 237 CURVE SMOOTH",
"267 357 LINE SMOOTH",
"271 361 OFFCURVE",
"278 361 OFFCURVE",
"282 356 CURVE SMOOTH",
"572 17 LINE",
"576 13 LINE SMOOTH",
"590 -1 OFFCURVE",
"610 -4 OFFCURVE",
"624 9 CURVE SMOOTH",
"640 23 OFFCURVE",
"642 44 OFFCURVE",
"629 59 CURVE SMOOTH",
"336 401 LINE SMOOTH",
"332 405 OFFCURVE",
"333 412 OFFCURVE",
"337 416 CURVE SMOOTH",
"603 640 LINE",
"604 641 LINE",
"619 654 OFFCURVE",
"621 676 OFFCURVE",
"608 690 CURVE SMOOTH",
"594 705 OFFCURVE",
"573 708 OFFCURVE",
"558 695 CURVE SMOOTH",
"144 345 LINE SMOOTH",
"134 336 OFFCURVE",
"121 344 OFFCURVE",
"121 356 CURVE SMOOTH",
"121 669 LINE SMOOTH",
"121 688 OFFCURVE",
"105 704 OFFCURVE",
"86 704 CURVE SMOOTH",
"66 704 OFFCURVE",
"50 688 OFFCURVE",
"50 669 CURVE SMOOTH",
"50 36 LINE SMOOTH",
"50 16 OFFCURVE",
"66 0 OFFCURVE",
"86 0 CURVE SMOOTH"
);
}
);
width = 688;
}
);
leftMetricsKey = "=H";
rightMetricsKey = "=H";
unicode = 004B;
},
{
glyphname = L;
lastChange = "2020-01-20 10:59:39 +0000";
layers = (
{
backgroundImage = {
crop = "{{0, 0}, {81, 115}}";
imagePath = images/L.jpg;
locked = "1";
transform = "{8.68277, 0, 0, 8.68277, -71, -155}";
};
layerId = "15BDFF71-2BAF-4479-A38F-4FA7A571BE82";
paths = (
{
closed = 1;
nodes = (
"454 0 LINE SMOOTH",
"473 0 OFFCURVE",
"489 16 OFFCURVE",
"489 36 CURVE SMOOTH",
"489 55 OFFCURVE",
"473 71 OFFCURVE",
"454 71 CURVE SMOOTH",
"131 71 LINE SMOOTH",
"125 71 OFFCURVE",
"121 75 OFFCURVE",
"121 81 CURVE SMOOTH",
"121 669 LINE SMOOTH",
"121 688 OFFCURVE",
"105 704 OFFCURVE",
"86 704 CURVE SMOOTH",
"66 704 OFFCURVE",
"50 688 OFFCURVE",
"50 669 CURVE SMOOTH",
"50 36 LINE SMOOTH",
"50 16 OFFCURVE",
"65 1 OFFCURVE",
"85 0 CURVE"
);
}
);
width = 539;
}
);
leftMetricsKey = "=H";
rightMetricsKey = "=H";
unicode = 004C;
},
{
glyphname = M;
lastChange = "2020-01-20 10:59:39 +0000";
layers = (
{
backgroundImage = {
crop = "{{0, 0}, {107, 112}}";
imagePath = images/M.jpg;
locked = "1";
transform = "{8.5616, 0, 0, 8.5616, -68, -130}";
};
layerId = "15BDFF71-2BAF-4479-A38F-4FA7A571BE82";
paths = (
{
closed = 1;
nodes = (
"105 0 OFFCURVE",
"121 16 OFFCURVE",
"121 36 CURVE SMOOTH",
"121 495 LINE SMOOTH",
"121 502 OFFCURVE",
"132 505 OFFCURVE",
"135 499 CURVE SMOOTH",
"349 92 LINE SMOOTH",
"364 64 OFFCURVE",
"407 64 OFFCURVE",
"422 92 CURVE SMOOTH",
"636 499 LINE SMOOTH",
"639 505 OFFCURVE",
"650 502 OFFCURVE",
"650 495 CURVE SMOOTH",
"650 36 LINE SMOOTH",
"650 16 OFFCURVE",
"666 0 OFFCURVE",
"686 0 CURVE SMOOTH",
"705 0 OFFCURVE",
"721 16 OFFCURVE",
"721 36 CURVE SMOOTH",
"721 672 LINE",
"719 690 OFFCURVE",
"704 704 OFFCURVE",
"686 704 CURVE SMOOTH",
"678 704 OFFCURVE",
"670 701 OFFCURVE",
"664 697 CURVE",
"660 694 OFFCURVE",
"657 690 OFFCURVE",
"654 685 CURVE",
"394 189 LINE",
"390 182 OFFCURVE",
"382 182 OFFCURVE",
"378 189 CURVE SMOOTH",
"117 685 LINE SMOOTH",
"111 697 OFFCURVE",
"99 704 OFFCURVE",
"86 704 CURVE SMOOTH",
"67 704 OFFCURVE",
"52 690 OFFCURVE",
"50 672 CURVE",
"50 36 LINE SMOOTH",
"50 16 OFFCURVE",
"66 0 OFFCURVE",
"86 0 CURVE SMOOTH"
);
}
);
width = 771;
}
);
leftMetricsKey = "=H";
rightMetricsKey = "=H";
unicode = 004D;
},
{
glyphname = N;
lastChange = "2020-01-20 10:59:39 +0000";
layers = (
{
backgroundImage = {
crop = "{{0, 0}, {89, 118}}";
imagePath = images/N.jpg;
locked = "1";
transform = "{8.65351, 0, 0, 8.65351, -80, -165}";
};
layerId = "15BDFF71-2BAF-4479-A38F-4FA7A571BE82";
paths = (
{
closed = 1;
nodes = (
"105 0 OFFCURVE",
"121 16 OFFCURVE",
"121 36 CURVE SMOOTH",
"121 536 LINE SMOOTH",
"121 544 OFFCURVE",
"131 548 OFFCURVE",
"136 541 CURVE SMOOTH",
"508 9 LINE SMOOTH",
"514 1 OFFCURVE",
"524 0 OFFCURVE",
"533 0 CURVE SMOOTH",
"552 0 OFFCURVE",
"568 16 OFFCURVE",
"568 36 CURVE SMOOTH",
"568 669 LINE SMOOTH",
"568 688 OFFCURVE",
"552 704 OFFCURVE",
"533 704 CURVE SMOOTH",
"513 704 OFFCURVE",
"497 688 OFFCURVE",
"497 669 CURVE SMOOTH",
"497 175 LINE SMOOTH",
"497 167 OFFCURVE",
"487 164 OFFCURVE",
"482 171 CURVE SMOOTH",
"111 693 LINE",
"105 700 OFFCURVE",
"96 704 OFFCURVE",
"86 704 CURVE SMOOTH",
"66 704 OFFCURVE",
"50 688 OFFCURVE",
"50 669 CURVE SMOOTH",
"50 36 LINE SMOOTH",
"50 16 OFFCURVE",
"66 0 OFFCURVE",
"86 0 CURVE SMOOTH"
);
}
);
width = 618;
}
);
leftMetricsKey = "=H";
rightMetricsKey = "=H";
unicode = 004E;
},
{
glyphname = O;
lastChange = "2020-01-20 10:59:39 +0000";
layers = (
{
backgroundImage = {
crop = "{{0, 0}, {97, 97}}";
imagePath = images/O.jpg;
locked = "1";
transform = "{8.651, 0, 0, 8.651, -22, -64}";
};
layerId = "15BDFF71-2BAF-4479-A38F-4FA7A571BE82";
paths = (
{
closed = 1;
nodes = (
"579 0 OFFCURVE",
"732 152 OFFCURVE",
"732 341 CURVE SMOOTH",
"732 530 OFFCURVE",
"579 682 OFFCURVE",
"391 682 CURVE SMOOTH",
"202 682 OFFCURVE",
"50 529 OFFCURVE",
"50 341 CURVE SMOOTH",
"50 152 OFFCURVE",
"202 0 OFFCURVE",
"391 0 CURVE SMOOTH"
);
},
{
closed = 1;
nodes = (
"240 69 OFFCURVE",
"119 190 OFFCURVE",
"119 341 CURVE SMOOTH",
"119 491 OFFCURVE",
"240 613 OFFCURVE",
"391 613 CURVE SMOOTH",
"541 613 OFFCURVE",
"663 492 OFFCURVE",
"663 341 CURVE SMOOTH",
"663 190 OFFCURVE",
"541 69 OFFCURVE",
"391 69 CURVE SMOOTH"
);
}
);
width = 782;
}
);
leftMetricsKey = "=H";
rightMetricsKey = "=H";
unicode = 004F;
},
{
glyphname = P;
lastChange = "2020-01-20 10:59:39 +0000";
layers = (
{
backgroundImage = {
crop = "{{0, 0}, {67, 109}}";
imagePath = images/P.jpg;
locked = "1";
transform = "{8.801, 0, 0, 8.801, -9, -163}";
};
layerId = "15BDFF71-2BAF-4479-A38F-4FA7A571BE82";
paths = (
{
closed = 1;
nodes = (
"105 0 OFFCURVE",
"121 16 OFFCURVE",
"121 36 CURVE SMOOTH",
"121 277 LINE SMOOTH",
"121 283 OFFCURVE",
"125 287 OFFCURVE",
"131 287 CURVE SMOOTH",
"300 287 LINE SMOOTH",
"415 287 OFFCURVE",
"508 380 OFFCURVE",
"508 495 CURVE SMOOTH",
"508 610 OFFCURVE",
"415 704 OFFCURVE",
"300 704 CURVE SMOOTH",
"86 704 LINE SMOOTH",
"66 704 OFFCURVE",
"50 688 OFFCURVE",
"50 669 CURVE SMOOTH",
"50 36 LINE SMOOTH",
"50 16 OFFCURVE",
"66 0 OFFCURVE",
"86 0 CURVE SMOOTH"
);
},
{
closed = 1;
nodes = (
"125 352 OFFCURVE",
"121 356 OFFCURVE",
"121 362 CURVE SMOOTH",
"121 624 LINE SMOOTH",
"121 630 OFFCURVE",
"125 634 OFFCURVE",
"131 634 CURVE SMOOTH",
"298 634 LINE SMOOTH",
"376 634 OFFCURVE",
"438 572 OFFCURVE",
"438 493 CURVE SMOOTH",
"438 414 OFFCURVE",
"376 352 OFFCURVE",
"298 352 CURVE SMOOTH",
"131 352 LINE SMOOTH"
);
}
);
width = 558;
}
);
leftMetricsKey = "=H";
rightMetricsKey = "=H";
unicode = 0050;
},
{
glyphname = Q;
lastChange = "2020-01-20 10:59:39 +0000";
layers = (
{
backgroundImage = {
crop = "{{0, 0}, {102, 99}}";
imagePath = images/Q.jpg;
locked = "1";
transform = "{8.75619, 0, 0, 8.75619, -70, -67}";
};
layerId = "15BDFF71-2BAF-4479-A38F-4FA7A571BE82";
paths = (
{
closed = 1;
nodes = (
"451 31 OFFCURVE",
"507 47 OFFCURVE",
"556 73 CURVE SMOOTH",
"560 76 OFFCURVE",
"565 75 OFFCURVE",
"568 71 CURVE SMOOTH",
"588 49 LINE",
"589 48 LINE",
"601 34 OFFCURVE",
"624 33 OFFCURVE",
"639 47 CURVE SMOOTH",
"653 60 OFFCURVE",
"654 82 OFFCURVE",
"641 97 CURVE SMOOTH",
"627 113 LINE SMOOTH",
"623 118 OFFCURVE",
"623 123 OFFCURVE",
"627 127 CURVE SMOOTH",
"692 189 OFFCURVE",
"732 276 OFFCURVE",
"732 372 CURVE SMOOTH",
"732 561 OFFCURVE",
"579 713 OFFCURVE",
"391 713 CURVE SMOOTH",
"202 713 OFFCURVE",
"50 560 OFFCURVE",
"50 372 CURVE SMOOTH",
"50 183 OFFCURVE",
"202 31 OFFCURVE",
"391 31 CURVE SMOOTH"
);
},
{
closed = 1;
nodes = (
"240 100 OFFCURVE",
"119 221 OFFCURVE",
"119 372 CURVE SMOOTH",
"119 522 OFFCURVE",
"240 644 OFFCURVE",
"391 644 CURVE SMOOTH",
"541 644 OFFCURVE",
"663 523 OFFCURVE",
"663 372 CURVE SMOOTH",
"663 296 OFFCURVE",
"632 227 OFFCURVE",
"581 178 CURVE SMOOTH",
"577 174 OFFCURVE",
"571 173 OFFCURVE",
"567 178 CURVE SMOOTH",
"537 211 LINE SMOOTH",
"524 225 OFFCURVE",
"501 226 OFFCURVE",
"487 214 CURVE SMOOTH",
"471 200 OFFCURVE",
"470 178 OFFCURVE",
"485 163 CURVE",
"505 141 LINE SMOOTH",
"510 135 OFFCURVE",
"509 127 OFFCURVE",
"501 123 CURVE SMOOTH",
"468 109 OFFCURVE",
"431 100 OFFCURVE",
"391 100 CURVE SMOOTH"
);
}
);
width = 782;
}
);
leftMetricsKey = "=H";
rightMetricsKey = "=H";
unicode = 0051;
},
{
glyphname = R;
lastChange = "2020-01-20 10:59:39 +0000";
layers = (
{
backgroundImage = {
crop = "{{0, 0}, {86, 111}}";
imagePath = images/R.jpg;
locked = "1";
transform = "{8.51826, 0, 0, 8.51826, -87, -131}";
};
layerId = "15BDFF71-2BAF-4479-A38F-4FA7A571BE82";
paths = (
{
closed = 1;
nodes = (
"105 0 OFFCURVE",
"121 16 OFFCURVE",
"121 36 CURVE SMOOTH",
"121 280 LINE SMOOTH",
"121 286 OFFCURVE",
"125 290 OFFCURVE",
"131 290 CURVE SMOOTH",
"330 290 LINE SMOOTH",
"333 290 OFFCURVE",
"337 288 OFFCURVE",
"338 285 CURVE SMOOTH",
"469 16 LINE",
"477 -3 OFFCURVE",
"500 -9 OFFCURVE",
"518 0 CURVE SMOOTH",
"534 8 OFFCURVE",
"543 29 OFFCURVE",
"534 47 CURVE SMOOTH",
"412 299 LINE SMOOTH",
"408 308 OFFCURVE",
"410 318 OFFCURVE",
"419 324 CURVE SMOOTH",
"473 362 OFFCURVE",
"508 424 OFFCURVE",
"508 495 CURVE SMOOTH",
"508 610 OFFCURVE",
"415 704 OFFCURVE",
"300 704 CURVE SMOOTH",
"86 704 LINE SMOOTH",
"66 704 OFFCURVE",
"50 688 OFFCURVE",
"50 669 CURVE SMOOTH",
"50 36 LINE SMOOTH",
"50 16 OFFCURVE",
"66 0 OFFCURVE",
"86 0 CURVE SMOOTH"
);
},
{
closed = 1;
nodes = (
"125 352 OFFCURVE",
"121 356 OFFCURVE",
"121 362 CURVE SMOOTH",
"121 624 LINE SMOOTH",
"121 630 OFFCURVE",
"125 634 OFFCURVE",
"131 634 CURVE SMOOTH",
"298 634 LINE SMOOTH",
"376 634 OFFCURVE",
"438 572 OFFCURVE",
"438 493 CURVE SMOOTH",
"438 414 OFFCURVE",
"376 352 OFFCURVE",
"298 352 CURVE SMOOTH",
"131 352 LINE SMOOTH"
);
}
);
width = 588;
}
);
leftMetricsKey = "=H";
rightMetricsKey = "=H";
unicode = 0052;
},
{
glyphname = S;
lastChange = "2020-01-20 10:59:39 +0000";
layers = (
{
backgroundImage = {
crop = "{{0, 0}, {85, 117}}";
imagePath = images/S.jpg;
locked = "1";
transform = "{8.921, 0, 0, 8.921, -59, -168}";
};
layerId = "15BDFF71-2BAF-4479-A38F-4FA7A571BE82";
paths = (
{
closed = 1;
nodes = (
"477 -19 OFFCURVE",
"629 40 OFFCURVE",
"629 193 CURVE SMOOTH",
"629 354 OFFCURVE",
"483 414 OFFCURVE",
"342 414 CURVE SMOOTH",
"235 414 OFFCURVE",
"163 442 OFFCURVE",
"163 521 CURVE SMOOTH",
"163 590 OFFCURVE",
"238 630 OFFCURVE",
"342 630 CURVE SMOOTH",
"515 630 OFFCURVE",
"546 535 OFFCURVE",
"589 587 CURVE SMOOTH",
"636 644 OFFCURVE",
"463 709 OFFCURVE",
"342 709 CURVE SMOOTH",
"200 709 OFFCURVE",
"87 635 OFFCURVE",
"87 525 CURVE SMOOTH",
"87 393 OFFCURVE",
"219 339 OFFCURVE",
"342 339 CURVE SMOOTH",
"455 339 OFFCURVE",
"550 308 OFFCURVE",
"553 203 CURVE SMOOTH",
"556 87 OFFCURVE",
"439 61 OFFCURVE",
"342 61 CURVE SMOOTH",
"108 61 OFFCURVE",
"114 183 OFFCURVE",
"61 131 CURVE SMOOTH",
"5 76 OFFCURVE",
"177 -19 OFFCURVE",
"342 -19 CURVE SMOOTH"
);
}
);
width = 679;
}
);
leftMetricsKey = "=H";
rightMetricsKey = "=H";
unicode = 0053;
},
{
glyphname = T;
lastChange = "2020-01-20 10:59:39 +0000";
layers = (
{
backgroundImage = {
crop = "{{0, 0}, {72, 99}}";
imagePath = images/T.jpg;
locked = "1";
transform = "{8.618, 0, 0, 8.618, 15, -60}";
};
layerId = "15BDFF71-2BAF-4479-A38F-4FA7A571BE82";
paths = (
{
closed = 1;
nodes = (
"322 0 OFFCURVE",
"338 16 OFFCURVE",
"338 36 CURVE SMOOTH",
"338 623 LINE SMOOTH",
"338 629 OFFCURVE",
"342 633 OFFCURVE",
"348 633 CURVE SMOOTH",
"518 633 LINE SMOOTH",
"537 633 OFFCURVE",
"553 649 OFFCURVE",
"553 669 CURVE SMOOTH",
"553 688 OFFCURVE",
"537 704 OFFCURVE",
"518 704 CURVE SMOOTH",
"86 704 LINE SMOOTH",
"65 704 OFFCURVE",
"50 688 OFFCURVE",
"50 669 CURVE SMOOTH",
"50 649 OFFCURVE",
"66 633 OFFCURVE",
"86 633 CURVE SMOOTH",
"257 633 LINE SMOOTH",
"263 633 OFFCURVE",
"267 629 OFFCURVE",
"267 623 CURVE SMOOTH",
"267 36 LINE SMOOTH",
"267 16 OFFCURVE",
"283 0 OFFCURVE",
"303 0 CURVE SMOOTH"
);
}
);
width = 603;
}
);
leftMetricsKey = "=H";
rightMetricsKey = "=H";
unicode = 0054;
},
{
glyphname = U;
lastChange = "2020-01-20 10:59:39 +0000";
layers = (
{
backgroundImage = {
crop = "{{0, 0}, {79, 103}}";
imagePath = images/U.jpg;
locked = "1";
transform = "{8.958, 0, 0, 8.958, -25, -98}";
};
layerId = "15BDFF71-2BAF-4479-A38F-4FA7A571BE82";
paths = (
{
closed = 1;
nodes = (
"478 -37 OFFCURVE",
"601 86 OFFCURVE",
"601 238 CURVE SMOOTH",
"601 669 LINE",
"530 669 LINE",
"530 576 LINE",
"530 238 LINE SMOOTH",
"530 126 OFFCURVE",
"438 34 OFFCURVE",
"326 34 CURVE SMOOTH",
"213 34 OFFCURVE",
"121 126 OFFCURVE",
"121 238 CURVE SMOOTH",
"121 576 LINE",
"121 669 LINE",
"50 669 LINE",
"50 238 LINE SMOOTH",
"50 86 OFFCURVE",
"173 -37 OFFCURVE",
"326 -37 CURVE SMOOTH"
);
},
{
closed = 1;
nodes = (
"105 633 OFFCURVE",
"121 649 OFFCURVE",
"121 669 CURVE SMOOTH",
"121 688 OFFCURVE",
"105 704 OFFCURVE",
"86 704 CURVE SMOOTH",
"66 704 OFFCURVE",
"50 688 OFFCURVE",
"50 669 CURVE SMOOTH",
"50 649 OFFCURVE",
"66 633 OFFCURVE",
"86 633 CURVE SMOOTH"
);
},
{
closed = 1;
nodes = (
"585 633 OFFCURVE",
"601 649 OFFCURVE",
"601 669 CURVE SMOOTH",
"601 688 OFFCURVE",
"585 704 OFFCURVE",
"566 704 CURVE SMOOTH",
"546 704 OFFCURVE",
"530 688 OFFCURVE",
"530 669 CURVE SMOOTH",
"530 649 OFFCURVE",
"546 633 OFFCURVE",
"566 633 CURVE SMOOTH"
);
}
);
width = 651;
}
);
leftMetricsKey = "=H";
rightMetricsKey = "=H";
unicode = 0055;
},
{
glyphname = V;
lastChange = "2020-01-20 10:59:39 +0000";
layers = (
{
backgroundImage = {
crop = "{{0, 0}, {98, 118}}";
imagePath = images/V.jpg;
locked = "1";
transform = "{8.47966, 0, 0, 8.47966, -50, -133}";
};
layerId = "15BDFF71-2BAF-4479-A38F-4FA7A571BE82";
paths = (
{
closed = 1;
nodes = (
"371 0 OFFCURVE",
"384 8 OFFCURVE",
"390 21 CURVE SMOOTH",
"661 658 LINE SMOOTH",
"669 677 OFFCURVE",
"660 698 OFFCURVE",
"642 706 CURVE SMOOTH",
"624 714 OFFCURVE",
"603 705 OFFCURVE",
"595 686 CURVE SMOOTH",
"370 157 LINE SMOOTH",
"365 144 OFFCURVE",
"349 144 OFFCURVE",
"344 157 CURVE SMOOTH",
"119 686 LINE SMOOTH",
"111 705 OFFCURVE",
"90 714 OFFCURVE",
"72 706 CURVE SMOOTH",
"54 698 OFFCURVE",
"45 677 OFFCURVE",
"53 658 CURVE SMOOTH",
"324 21 LINE SMOOTH",
"330 8 OFFCURVE",
"343 0 OFFCURVE",
"357 0 CURVE SMOOTH"
);
}
);
width = 714;
}
);
leftMetricsKey = "=H";
rightMetricsKey = "=H";
unicode = 0056;
},
{
glyphname = W;
lastChange = "2020-01-20 10:59:39 +0000";
layers = (
{
backgroundImage = {
crop = "{{0, 0}, {110, 98}}";
imagePath = images/W.jpg;
locked = "1";
transform = "{8.62928, 0, 0, 8.62928, -49, -72}";
};
layerId = "15BDFF71-2BAF-4479-A38F-4FA7A571BE82";
paths = (
{
closed = 1;
nodes = (
"272 16 OFFCURVE",
"282 27 OFFCURVE",
"284 40 CURVE",
"437 512 LINE SMOOTH",
"439 520 OFFCURVE",
"451 520 OFFCURVE",
"453 512 CURVE SMOOTH",
"605 40 LINE",
"607 27 OFFCURVE",
"617 16 OFFCURVE",
"630 12 CURVE SMOOTH",
"648 7 OFFCURVE",
"668 17 OFFCURVE",
"673 34 CURVE",
"673 33 OFFCURVE",
"717 196 OFFCURVE",
"838 649 CURVE SMOOTH",
"843 667 OFFCURVE",
"831 687 OFFCURVE",
"812 692 CURVE SMOOTH",
"794 697 OFFCURVE",
"777 686 OFFCURVE",
"770 667 CURVE",
"644 199 LINE SMOOTH",
"642 190 OFFCURVE",
"631 190 OFFCURVE",
"628 199 CURVE SMOOTH",
"478 660 LINE SMOOTH",
"472 677 OFFCURVE",
"455 688 OFFCURVE",
"435 683 CURVE SMOOTH",
"423 680 OFFCURVE",
"414 671 OFFCURVE",
"411 660 CURVE",
"261 199 LINE SMOOTH",
"258 190 OFFCURVE",
"247 190 OFFCURVE",
"245 199 CURVE SMOOTH",
"119 667 LINE",
"113 686 OFFCURVE",
"95 697 OFFCURVE",
"77 692 CURVE SMOOTH",
"58 687 OFFCURVE",
"46 667 OFFCURVE",
"51 649 CURVE SMOOTH",
"214 41 OFFCURVE",
"215 41 OFFCURVE",
"215 37 CURVE",
"220 18 OFFCURVE",
"240 7 OFFCURVE",
"259 12 CURVE"
);
}
);
width = 889;
}
);
leftMetricsKey = "=H";
rightMetricsKey = "=H";
unicode = 0057;
},
{
glyphname = X;
lastChange = "2020-01-20 10:59:39 +0000";
layers = (
{
backgroundImage = {
crop = "{{0, 0}, {107, 123}}";
imagePath = images/X.jpg;
locked = "1";
transform = "{8.47638, 0, 0, 8.47638, -119, -186}";
};
layerId = "15BDFF71-2BAF-4479-A38F-4FA7A571BE82";
paths = (
{
closed = 1;
nodes = (
"79 -1 OFFCURVE",
"102 2 OFFCURVE",
"114 18 CURVE SMOOTH",
"332 306 LINE SMOOTH",
"337 313 OFFCURVE",
"345 313 OFFCURVE",
"350 306 CURVE SMOOTH",
"567 18 LINE SMOOTH",
"579 2 OFFCURVE",
"602 -1 OFFCURVE",
"617 10 CURVE SMOOTH",
"633 22 OFFCURVE",
"636 44 OFFCURVE",
"624 60 CURVE SMOOTH",
"389 371 LINE SMOOTH",
"387 374 OFFCURVE",
"387 380 OFFCURVE",
"389 383 CURVE SMOOTH",
"587 645 LINE SMOOTH",
"599 661 OFFCURVE",
"595 683 OFFCURVE",
"580 694 CURVE SMOOTH",
"564 706 OFFCURVE",
"541 703 OFFCURVE",
"530 688 CURVE SMOOTH",
"349 448 LINE SMOOTH",
"344 441 OFFCURVE",
"336 441 OFFCURVE",
"331 448 CURVE SMOOTH",
"151 688 LINE SMOOTH",
"140 703 OFFCURVE",
"117 706 OFFCURVE",
"101 694 CURVE SMOOTH",
"86 683 OFFCURVE",
"82 661 OFFCURVE",
"94 645 CURVE SMOOTH",
"292 383 LINE SMOOTH",
"294 380 OFFCURVE",
"294 374 OFFCURVE",
"292 371 CURVE SMOOTH",
"57 60 LINE SMOOTH",
"45 44 OFFCURVE",
"48 22 OFFCURVE",
"64 10 CURVE SMOOTH"
);
}
);
width = 681;
}
);
leftMetricsKey = "=H";
rightMetricsKey = "=H";
unicode = 0058;
},
{
glyphname = Y;
lastChange = "2020-01-20 10:59:39 +0000";
layers = (
{
backgroundImage = {
crop = "{{0, 0}, {82, 111}}";
imagePath = images/Y.jpg;
locked = "1";
transform = "{8.53135, 0, 0, 8.53135, -4, -124}";
};
layerId = "15BDFF71-2BAF-4479-A38F-4FA7A571BE82";
paths = (
{
closed = 1;
nodes = (
"334 0 OFFCURVE",
"350 16 OFFCURVE",
"350 36 CURVE SMOOTH",
"350 299 LINE SMOOTH",
"350 310 OFFCURVE",
"353 323 OFFCURVE",
"360 332 CURVE SMOOTH",
"572 634 LINE SMOOTH",
"583 650 OFFCURVE",
"579 672 OFFCURVE",
"564 683 CURVE SMOOTH",
"547 695 OFFCURVE",
"526 690 OFFCURVE",
"514 674 CURVE SMOOTH",
"323 402 LINE SMOOTH",
"318 395 OFFCURVE",
"310 395 OFFCURVE",
"305 402 CURVE SMOOTH",
"115 673 LINE",
"114 674 LINE",
"102 690 OFFCURVE",
"81 695 OFFCURVE",
"64 683 CURVE SMOOTH",
"49 672 OFFCURVE",
"45 650 OFFCURVE",
"56 634 CURVE SMOOTH",
"269 330 LINE SMOOTH",
"276 321 OFFCURVE",
"279 308 OFFCURVE",
"279 297 CURVE SMOOTH",
"279 36 LINE SMOOTH",
"279 16 OFFCURVE",
"295 0 OFFCURVE",
"315 0 CURVE SMOOTH"
);
}
);
width = 628;
}
);
leftMetricsKey = "=H";
rightMetricsKey = "=H";
unicode = 0059;
},
{
glyphname = Z;
lastChange = "2020-01-20 10:59:39 +0000";
layers = (
{
backgroundImage = {
crop = "{{0, 0}, {100, 118}}";
imagePath = images/Z.jpg;
locked = "1";
transform = "{8.4482, 0, 0, 8.4482, -139, -142}";
};
layerId = "15BDFF71-2BAF-4479-A38F-4FA7A571BE82";
paths = (
{
closed = 1;
nodes = (
"542 5 OFFCURVE",
"558 21 OFFCURVE",
"558 41 CURVE SMOOTH",
"558 60 OFFCURVE",
"542 76 OFFCURVE",
"522 76 CURVE SMOOTH",
"185 76 LINE SMOOTH",
"173 76 OFFCURVE",
"167 87 OFFCURVE",
"174 97 CURVE SMOOTH",
"587 645 LINE SMOOTH",
"599 661 OFFCURVE",
"595 683 OFFCURVE",
"580 694 CURVE SMOOTH",
"566 704 OFFCURVE",
"559 703 OFFCURVE",
"127 700 CURVE SMOOTH",
"107 700 OFFCURVE",
"91 684 OFFCURVE",
"91 664 CURVE SMOOTH",
"91 645 OFFCURVE",
"107 629 OFFCURVE",
"127 629 CURVE SMOOTH",
"459 629 LINE SMOOTH",
"471 629 OFFCURVE",
"477 618 OFFCURVE",
"470 608 CURVE SMOOTH",
"57 60 LINE SMOOTH",
"45 44 OFFCURVE",
"48 22 OFFCURVE",
"64 10 CURVE SMOOTH",
"73 3 OFFCURVE",
"84 5 OFFCURVE",
"522 5 CURVE SMOOTH"
);
}
);
width = 644;
}
);
leftMetricsKey = "=H";
rightMetricsKey = "=H";
unicode = 005A;
},
{
glyphname = zero;
lastChange = "2020-01-20 10:59:39 +0000";
layers = (
{
backgroundImage = {
crop = "{{0, 0}, {91, 110}}";
imagePath = images/0.jpg;
locked = "1";
transform = "{8.78754, 0, 0, 8.78754, -46, -161}";
};
layerId = "15BDFF71-2BAF-4479-A38F-4FA7A571BE82";
paths = (
{
closed = 1;
nodes = (
"483 -1 OFFCURVE",
"607 156 OFFCURVE",
"607 351 CURVE SMOOTH",
"607 545 OFFCURVE",
"483 702 OFFCURVE",
"328 702 CURVE SMOOTH",
"174 702 OFFCURVE",
"50 545 OFFCURVE",
"50 351 CURVE SMOOTH",
"50 156 OFFCURVE",
"174 -1 OFFCURVE",
"328 -1 CURVE SMOOTH"
);
},
{
closed = 1;
nodes = (
"215 73 OFFCURVE",
"124 198 OFFCURVE",
"124 351 CURVE SMOOTH",
"124 503 OFFCURVE",
"215 628 OFFCURVE",
"328 628 CURVE SMOOTH",
"442 628 OFFCURVE",
"533 503 OFFCURVE",
"533 351 CURVE SMOOTH",
"533 198 OFFCURVE",
"442 73 OFFCURVE",
"328 73 CURVE SMOOTH"
);
}
);
width = 657;
}
);
leftMetricsKey = "=H";
rightMetricsKey = "=H";
unicode = 0030;
},
{
glyphname = one;
lastChange = "2020-01-20 10:59:39 +0000";
layers = (
{
backgroundImage = {
crop = "{{0, 0}, {40, 63}}";
imagePath = images/1.jpg;
transform = "{2.21597, -0.19909, 0.19909, 2.21597, -133, 0}";
};
layerId = "15BDFF71-2BAF-4479-A38F-4FA7A571BE82";
paths = (
{
closed = 1;
nodes = (
"185 0 OFFCURVE",
"201 16 OFFCURVE",
"201 36 CURVE SMOOTH",
"201 669 LINE SMOOTH",
"201 688 OFFCURVE",
"185 704 OFFCURVE",
"166 704 CURVE SMOOTH",
"145 704 OFFCURVE",
"129 682 OFFCURVE",
"56 588 CURVE SMOOTH",
"42 570 OFFCURVE",
"53 547 OFFCURVE",
"76 547 CURVE SMOOTH",
"115 547 LINE SMOOTH",
"123 547 OFFCURVE",
"130 540 OFFCURVE",
"130 532 CURVE SMOOTH",
"130 36 LINE SMOOTH",
"130 16 OFFCURVE",
"146 0 OFFCURVE",
"166 0 CURVE SMOOTH"
);
}
);
width = 251;
}
);
leftMetricsKey = "=H";
rightMetricsKey = "=H";
unicode = 0031;
},
{
glyphname = two;
lastChange = "2020-01-20 10:59:39 +0000";
layers = (
{
backgroundImage = {
crop = "{{0, 0}, {82, 82}}";
imagePath = images/2.jpg;
locked = "1";
transform = "{13.13766, 0, 0, 13.13766, -184, -197}";
};
layerId = "15BDFF71-2BAF-4479-A38F-4FA7A571BE82";
paths = (
{
closed = 1;
nodes = (
"44 562 OFFCURVE",
"53 538 OFFCURVE",
"72 532 CURVE SMOOTH",
"90 526 OFFCURVE",
"105 543 OFFCURVE",
"124 567 CURVE SMOOTH",
"160 613 OFFCURVE",
"212 637 OFFCURVE",
"273 637 CURVE SMOOTH",
"359 637 OFFCURVE",
"436 580 OFFCURVE",
"436 486 CURVE SMOOTH",
"436 414 OFFCURVE",
"353 380 OFFCURVE",
"273 347 CURVE SMOOTH",
"250 337 OFFCURVE",
"226 328 OFFCURVE",
"205 317 CURVE SMOOTH",
"111 271 OFFCURVE",
"55 188 OFFCURVE",
"55 96 CURVE SMOOTH",
"55 32 OFFCURVE",
"73 3 OFFCURVE",
"117 3 CURVE SMOOTH",
"499 3 LINE SMOOTH",
"520 3 OFFCURVE",
"537 20 OFFCURVE",
"537 41 CURVE SMOOTH",
"537 61 OFFCURVE",
"520 79 OFFCURVE",
"499 79 CURVE SMOOTH",
"180 79 LINE SMOOTH",
"140 79 OFFCURVE",
"141 102 OFFCURVE",
"141 124 CURVE SMOOTH",
"141 192 OFFCURVE",
"190 240 OFFCURVE",
"296 277 CURVE SMOOTH",
"385 308 OFFCURVE",
"502 350 OFFCURVE",
"502 486 CURVE SMOOTH",
"502 635 OFFCURVE",
"379 707 OFFCURVE",
"263 707 CURVE SMOOTH",
"166 707 OFFCURVE",
"79 639 OFFCURVE",
"54 584 CURVE SMOOTH"
);
}
);
width = 587;
}
);
leftMetricsKey = "=H";
rightMetricsKey = "=H";
unicode = 0032;
},
{
glyphname = three;
lastChange = "2020-01-20 10:59:39 +0000";
layers = (
{
backgroundImage = {
crop = "{{0, 0}, {80, 74}}";
imagePath = images/3.jpg;
locked = "1";
transform = "{13.51446, 0, 0, 13.51446, -309, -92}";
};
layerId = "15BDFF71-2BAF-4479-A38F-4FA7A571BE82";
paths = (
{
closed = 1;
nodes = (
"382 0 OFFCURVE",
"480 82 OFFCURVE",
"480 196 CURVE SMOOTH",
"480 267 OFFCURVE",
"442 327 OFFCURVE",
"386 367 CURVE SMOOTH",
"379 372 OFFCURVE",
"378 380 OFFCURVE",
"385 386 CURVE SMOOTH",
"423 418 OFFCURVE",
"447 463 OFFCURVE",
"447 513 CURVE SMOOTH",
"447 611 OFFCURVE",
"356 691 OFFCURVE",
"245 691 CURVE SMOOTH",
"154 691 OFFCURVE",
"83 634 OFFCURVE",
"66 593 CURVE SMOOTH",
"61 581 OFFCURVE",
"55 553 OFFCURVE",
"83 544 CURVE SMOOTH",
"105 537 OFFCURVE",
"116 554 OFFCURVE",
"126 567 CURVE SMOOTH",
"136 581 OFFCURVE",
"172 623 OFFCURVE",
"245 623 CURVE SMOOTH",
"318 623 OFFCURVE",
"378 573 OFFCURVE",
"378 513 CURVE SMOOTH",
"378 434 OFFCURVE",
"327 416 OFFCURVE",
"293 410 CURVE SMOOTH",
"263 405 OFFCURVE",
"259 389 OFFCURVE",
"259 376 CURVE SMOOTH",
"259 365 OFFCURVE",
"266 346 OFFCURVE",
"296 336 CURVE SMOOTH",
"333 324 OFFCURVE",
"406 282 OFFCURVE",
"406 196 CURVE SMOOTH",
"406 119 OFFCURVE",
"347 67 OFFCURVE",
"261 67 CURVE SMOOTH",
"195 67 OFFCURVE",
"138 104 OFFCURVE",
"115 166 CURVE SMOOTH",
"111 177 OFFCURVE",
"94 195 OFFCURVE",
"74 189 CURVE SMOOTH",
"51 182 OFFCURVE",
"49 160 OFFCURVE",
"51 150 CURVE SMOOTH",
"69 62 OFFCURVE",
"143 0 OFFCURVE",
"261 0 CURVE SMOOTH"
);
}
);
width = 530;
}
);
leftMetricsKey = "=H";
rightMetricsKey = "=H";
unicode = 0033;
},
{
glyphname = four;
lastChange = "2020-01-20 10:59:39 +0000";
layers = (
{
backgroundImage = {
crop = "{{0, 0}, {53, 68}}";
imagePath = images/4.jpg;
locked = "1";
transform = "{13.10728, 0, 0, 13.10728, -46, -69}";
};
layerId = "15BDFF71-2BAF-4479-A38F-4FA7A571BE82";
paths = (
{
closed = 1;
nodes = (
"456 0 OFFCURVE",
"472 16 OFFCURVE",
"472 36 CURVE",
"472 158 LINE SMOOTH",
"472 166 OFFCURVE",
"479 173 OFFCURVE",
"487 173 CURVE SMOOTH",
"529 173 LINE",
"548 172 OFFCURVE",
"564 190 OFFCURVE",
"564 208 CURVE SMOOTH",
"564 229 OFFCURVE",
"548 245 OFFCURVE",
"529 244 CURVE",
"487 244 LINE SMOOTH",
"479 244 OFFCURVE",
"472 251 OFFCURVE",
"472 259 CURVE SMOOTH",
"472 669 LINE SMOOTH",
"472 688 OFFCURVE",
"456 704 OFFCURVE",
"437 704 CURVE SMOOTH",
"428 704 OFFCURVE",
"419 703 OFFCURVE",
"413 695 CURVE",
"61 237 LINE",
"53 227 OFFCURVE",
"50 220 OFFCURVE",
"50 208 CURVE SMOOTH",
"50 190 OFFCURVE",
"65 173 OFFCURVE",
"85 173 CURVE SMOOTH",
"386 173 LINE SMOOTH",
"394 173 OFFCURVE",
"401 166 OFFCURVE",
"401 158 CURVE SMOOTH",
"401 36 LINE SMOOTH",
"401 16 OFFCURVE",
"417 0 OFFCURVE",
"437 0 CURVE SMOOTH"
);
},
{
closed = 1;
nodes = (
"173 244 OFFCURVE",
"167 255 OFFCURVE",
"174 265 CURVE SMOOTH",
"372 528 LINE SMOOTH",
"382 541 OFFCURVE",
"401 534 OFFCURVE",
"401 518 CURVE SMOOTH",
"401 254 LINE SMOOTH",
"401 248 OFFCURVE",
"397 244 OFFCURVE",
"391 244 CURVE SMOOTH",
"185 244 LINE SMOOTH"
);
}
);
width = 614;
}
);
leftMetricsKey = "=H";
rightMetricsKey = "=H";
unicode = 0034;
},
{
glyphname = five;
lastChange = "2020-01-20 10:59:39 +0000";
layers = (
{
backgroundImage = {
crop = "{{0, 0}, {52, 70}}";
imagePath = images/5.jpg;
locked = "1";
transform = "{12.961, 0, 0, 12.961, -94, -90}";
};
layerId = "15BDFF71-2BAF-4479-A38F-4FA7A571BE82";
paths = (
{
closed = 1;
nodes = (
"400 0 OFFCURVE",
"509 102 OFFCURVE",
"509 257 CURVE SMOOTH",
"509 410 OFFCURVE",
"400 514 OFFCURVE",
"266 514 CURVE SMOOTH",
"220 514 OFFCURVE",
"192 506 OFFCURVE",
"160 503 CURVE SMOOTH",
"149 502 OFFCURVE",
"142 509 OFFCURVE",
"142 520 CURVE SMOOTH",
"142 592 LINE SMOOTH",
"142 607 OFFCURVE",
"153 619 OFFCURVE",
"169 619 CURVE SMOOTH",
"433 619 LINE SMOOTH",
"453 619 OFFCURVE",
"471 636 OFFCURVE",
"471 658 CURVE SMOOTH",
"471 678 OFFCURVE",
"453 696 OFFCURVE",
"433 696 CURVE SMOOTH",
"81 696 LINE SMOOTH",
"66 696 OFFCURVE",
"54 684 OFFCURVE",
"54 669 CURVE SMOOTH",
"54 363 LINE SMOOTH",
"54 315 OFFCURVE",
"123 319 OFFCURVE",
"139 358 CURVE SMOOTH",
"160 409 OFFCURVE",
"199 436 OFFCURVE",
"266 436 CURVE SMOOTH",
"356 436 OFFCURVE",
"428 366 OFFCURVE",
"428 257 CURVE SMOOTH",
"428 147 OFFCURVE",
"356 78 OFFCURVE",
"266 78 CURVE SMOOTH",
"202 78 OFFCURVE",
"155 95 OFFCURVE",
"131 164 CURVE SMOOTH",
"115 210 OFFCURVE",
"37 200 OFFCURVE",
"52 149 CURVE SMOOTH",
"79 58 OFFCURVE",
"161 0 OFFCURVE",
"266 0 CURVE SMOOTH"
);
}
);
width = 559;
}
);
leftMetricsKey = "=H";
rightMetricsKey = "=H";
unicode = 0035;
},
{
glyphname = six;
lastChange = "2020-01-20 10:59:39 +0000";
layers = (
{
backgroundImage = {
crop = "{{0, 0}, {52, 59}}";
imagePath = images/6.jpg;
locked = "1";
transform = "{13.2218, 0, 0, 13.2218, 26, -51}";
};
layerId = "15BDFF71-2BAF-4479-A38F-4FA7A571BE82";
paths = (
{
closed = 1;
nodes = (
"463 0 OFFCURVE",
"571 92 OFFCURVE",
"571 212 CURVE SMOOTH",
"571 335 OFFCURVE",
"461 433 OFFCURVE",
"323 433 CURVE SMOOTH",
"286 433 OFFCURVE",
"216 432 OFFCURVE",
"167 407 CURVE SMOOTH",
"132 389 OFFCURVE",
"137 454 OFFCURVE",
"159 508 CURVE SMOOTH",
"184 570 OFFCURVE",
"248 611 OFFCURVE",
"323 611 CURVE SMOOTH",
"403 611 OFFCURVE",
"463 574 OFFCURVE",
"497 507 CURVE SMOOTH",
"520 462 OFFCURVE",
"587 478 OFFCURVE",
"573 524 CURVE SMOOTH",
"541 630 OFFCURVE",
"452 690 OFFCURVE",
"323 690 CURVE SMOOTH",
"147 690 OFFCURVE",
"50 559 OFFCURVE",
"50 322 CURVE SMOOTH",
"50 108 OFFCURVE",
"141 0 OFFCURVE",
"323 0 CURVE SMOOTH"
);
},
{
closed = 1;
nodes = (
"220 64 OFFCURVE",
"150 127 OFFCURVE",
"150 219 CURVE SMOOTH",
"150 304 OFFCURVE",
"219 361 OFFCURVE",
"323 361 CURVE SMOOTH",
"421 361 OFFCURVE",
"503 293 OFFCURVE",
"503 212 CURVE SMOOTH",
"503 125 OFFCURVE",
"429 64 OFFCURVE",
"323 64 CURVE SMOOTH"
);
}
);
width = 625;
}
);
leftMetricsKey = "=H";
rightMetricsKey = "=H";
unicode = 0036;
},
{
glyphname = seven;
lastChange = "2020-01-20 10:59:39 +0000";
layers = (
{
backgroundImage = {
crop = "{{0, 0}, {94, 115}}";
imagePath = images/7.jpg;
locked = "1";
transform = "{8.54759, 0, 0, 8.54759, -89, -133}";
};
layerId = "15BDFF71-2BAF-4479-A38F-4FA7A571BE82";
paths = (
{
closed = 1;
nodes = (
"223 -3 OFFCURVE",
"236 9 OFFCURVE",
"240 26 CURVE SMOOTH",
"267 143 OFFCURVE",
"301 262 OFFCURVE",
"347 343 CURVE SMOOTH",
"420 472 OFFCURVE",
"531 595 OFFCURVE",
"572 643 CURVE SMOOTH",
"578 651 OFFCURVE",
"583 659 OFFCURVE",
"583 669 CURVE SMOOTH",
"583 688 OFFCURVE",
"567 704 OFFCURVE",
"548 704 CURVE SMOOTH",
"86 704 LINE SMOOTH",
"65 704 OFFCURVE",
"50 688 OFFCURVE",
"50 669 CURVE SMOOTH",
"50 649 OFFCURVE",
"66 633 OFFCURVE",
"86 633 CURVE SMOOTH",
"443 633 LINE SMOOTH",
"456 633 OFFCURVE",
"463 619 OFFCURVE",
"454 609 CURVE SMOOTH",
"409 559 OFFCURVE",
"329 464 OFFCURVE",
"273 354 CURVE SMOOTH",
"218 247 OFFCURVE",
"190 151 OFFCURVE",
"171 43 CURVE SMOOTH",
"167 18 OFFCURVE",
"178 -3 OFFCURVE",
"206 -3 CURVE SMOOTH"
);
}
);
width = 633;
}
);
leftMetricsKey = "=H";
rightMetricsKey = "=H";
unicode = 0037;
},
{
glyphname = eight;
lastChange = "2020-01-20 10:59:39 +0000";
layers = (
{
backgroundImage = {
crop = "{{0, 0}, {104, 114}}";
imagePath = images/8.jpg;
locked = "1";
transform = "{8.78932, 0, 0, 8.78932, -153, -147}";
};
layerId = "15BDFF71-2BAF-4479-A38F-4FA7A571BE82";
paths = (
{
closed = 1;
nodes = (
"457 6 OFFCURVE",
"575 99 OFFCURVE",
"575 213 CURVE SMOOTH",
"575 328 OFFCURVE",
"457 421 OFFCURVE",
"313 421 CURVE SMOOTH",
"168 421 OFFCURVE",
"50 328 OFFCURVE",
"50 213 CURVE SMOOTH",
"50 99 OFFCURVE",
"168 6 OFFCURVE",
"313 6 CURVE SMOOTH"
);
},
{
closed = 1;
nodes = (
"210 74 OFFCURVE",
"127 136 OFFCURVE",
"127 213 CURVE SMOOTH",
"127 291 OFFCURVE",
"210 353 OFFCURVE",
"313 353 CURVE SMOOTH",
"415 353 OFFCURVE",
"498 291 OFFCURVE",
"498 213 CURVE SMOOTH",
"498 136 OFFCURVE",
"415 74 OFFCURVE",
"313 74 CURVE SMOOTH"
);
},
{
closed = 1;
nodes = (
"447 353 OFFCURVE",
"557 433 OFFCURVE",
"557 530 CURVE SMOOTH",
"557 628 OFFCURVE",
"447 708 OFFCURVE",
"313 708 CURVE SMOOTH",
"178 708 OFFCURVE",
"68 628 OFFCURVE",
"68 530 CURVE SMOOTH",
"68 433 OFFCURVE",
"178 353 OFFCURVE",
"313 353 CURVE SMOOTH"
);
},
{
closed = 1;
nodes = (
"223 421 OFFCURVE",
"150 471 OFFCURVE",
"150 530 CURVE SMOOTH",
"150 590 OFFCURVE",
"223 640 OFFCURVE",
"313 640 CURVE SMOOTH",
"402 640 OFFCURVE",
"475 590 OFFCURVE",
"475 530 CURVE SMOOTH",
"475 471 OFFCURVE",
"402 421 OFFCURVE",
"313 421 CURVE SMOOTH"
);
}
);
width = 625;
}
);
leftMetricsKey = "=H";
rightMetricsKey = "=H";
unicode = 0038;
},
{
glyphname = nine;
lastChange = "2020-01-20 10:59:39 +0000";
layers = (
{
backgroundImage = {
crop = "{{0, 0}, {67, 65}}";
imagePath = images/9.jpg;
locked = "1";
transform = "{13.08904, 0, 0, 13.08904, -142, -98}";
};
layerId = "15BDFF71-2BAF-4479-A38F-4FA7A571BE82";
paths = (
{
closed = 1;
nodes = (
"162 690 OFFCURVE",
"54 598 OFFCURVE",
"54 478 CURVE SMOOTH",
"54 355 OFFCURVE",
"164 257 OFFCURVE",
"302 257 CURVE SMOOTH",
"339 257 OFFCURVE",
"409 258 OFFCURVE",
"458 283 CURVE SMOOTH",
"493 301 OFFCURVE",
"488 236 OFFCURVE",
"466 182 CURVE SMOOTH",
"441 120 OFFCURVE",
"377 79 OFFCURVE",
"302 79 CURVE SMOOTH",
"222 79 OFFCURVE",
"162 116 OFFCURVE",
"128 183 CURVE SMOOTH",
"105 228 OFFCURVE",
"38 212 OFFCURVE",
"52 166 CURVE SMOOTH",
"84 60 OFFCURVE",
"173 0 OFFCURVE",
"302 0 CURVE SMOOTH",
"478 0 OFFCURVE",
"575 131 OFFCURVE",
"575 368 CURVE SMOOTH",
"575 582 OFFCURVE",
"484 690 OFFCURVE",
"302 690 CURVE SMOOTH"
);
},
{
closed = 1;
nodes = (
"405 626 OFFCURVE",
"475 563 OFFCURVE",
"475 471 CURVE SMOOTH",
"475 386 OFFCURVE",
"406 329 OFFCURVE",
"302 329 CURVE SMOOTH",
"204 329 OFFCURVE",
"122 397 OFFCURVE",
"122 478 CURVE SMOOTH",
"122 565 OFFCURVE",
"196 626 OFFCURVE",
"302 626 CURVE SMOOTH"
);
}
);
width = 625;
}
);
leftMetricsKey = "=H";
rightMetricsKey = "=H";
unicode = 0039;
},
{
glyphname = period;
lastChange = "2020-01-20 10:59:39 +0000";
layers = (
{
layerId = "15BDFF71-2BAF-4479-A38F-4FA7A571BE82";
paths = (
{
closed = 1;
nodes = (
"139 -7 OFFCURVE",
"165 19 OFFCURVE",
"165 51 CURVE SMOOTH",
"165 82 OFFCURVE",
"139 108 OFFCURVE",
"108 108 CURVE SMOOTH",
"76 108 OFFCURVE",
"50 82 OFFCURVE",
"50 51 CURVE SMOOTH",
"50 19 OFFCURVE",
"76 -7 OFFCURVE",
"108 -7 CURVE SMOOTH"
);
}
);
width = 215;
}
);
leftMetricsKey = "=H";
rightMetricsKey = "=H";
unicode = 002E;
},
{
glyphname = comma;
lastChange = "2020-01-20 10:59:39 +0000";
layers = (
{
backgroundImage = {
crop = "{{0, 0}, {56, 43}}";
imagePath = images/_comma.jpg;
locked = "1";
transform = "{7.73395, 0, 0, 7.73395, -65, -187}";
};
layerId = "15BDFF71-2BAF-4479-A38F-4FA7A571BE82";
paths = (
{
closed = 1;
nodes = (
"141 -72 OFFCURVE",
"177 -31 OFFCURVE",
"180 23 CURVE SMOOTH",
"184 89 OFFCURVE",
"139 108 OFFCURVE",
"108 108 CURVE SMOOTH",
"76 108 OFFCURVE",
"50 82 OFFCURVE",
"50 51 CURVE SMOOTH",
"50 19 OFFCURVE",
"76 -7 OFFCURVE",
"108 -7 CURVE SMOOTH",
"122 -7 OFFCURVE",
"84 -37 OFFCURVE",
"77 -44 CURVE SMOOTH",
"46 -75 OFFCURVE",
"82 -110 OFFCURVE",
"113 -90 CURVE SMOOTH"
);
}
);
width = 230;
}
);
leftMetricsKey = "=H";
rightMetricsKey = "=H";
unicode = 002C;
},
{
glyphname = colon;
lastChange = "2020-01-20 10:59:39 +0000";
layers = (
{
backgroundImage = {
crop = "{{0, 0}, {39, 55}}";
imagePath = images/_colon.jpg;
transform = "{7.97357, 0, 0, 7.97357, -19, -115}";
};
layerId = "15BDFF71-2BAF-4479-A38F-4FA7A571BE82";
paths = (
{
closed = 1;
nodes = (
"139 160 OFFCURVE",
"165 186 OFFCURVE",
"165 218 CURVE SMOOTH",
"165 249 OFFCURVE",
"139 275 OFFCURVE",
"108 275 CURVE SMOOTH",
"76 275 OFFCURVE",
"50 249 OFFCURVE",
"50 218 CURVE SMOOTH",
"50 186 OFFCURVE",
"76 160 OFFCURVE",
"108 160 CURVE SMOOTH"
);
},
{
closed = 1;
nodes = (
"139 -7 OFFCURVE",
"165 19 OFFCURVE",
"165 51 CURVE SMOOTH",
"165 82 OFFCURVE",
"139 108 OFFCURVE",
"108 108 CURVE SMOOTH",
"76 108 OFFCURVE",
"50 82 OFFCURVE",
"50 51 CURVE SMOOTH",
"50 19 OFFCURVE",
"76 -7 OFFCURVE",
"108 -7 CURVE SMOOTH"
);
}
);
width = 215;
}
);
leftMetricsKey = "=H";
rightMetricsKey = "=H";
unicode = 003A;
},
{
glyphname = semicolon;
lastChange = "2020-01-20 10:59:39 +0000";
layers = (
{
backgroundImage = {
crop = "{{0, 0}, {48, 83}}";
imagePath = images/_semi.jpg;
locked = "1";
transform = "{8.25635, 0, 0, 8.25635, -59, -281}";
};
layerId = "15BDFF71-2BAF-4479-A38F-4FA7A571BE82";
paths = (
{
closed = 1;
nodes = (
"141 -72 OFFCURVE",
"177 -31 OFFCURVE",
"180 23 CURVE SMOOTH",
"184 89 OFFCURVE",
"139 108 OFFCURVE",
"108 108 CURVE SMOOTH",
"76 108 OFFCURVE",
"50 82 OFFCURVE",
"50 51 CURVE SMOOTH",
"50 19 OFFCURVE",
"76 -7 OFFCURVE",
"108 -7 CURVE SMOOTH",
"122 -7 OFFCURVE",
"84 -37 OFFCURVE",
"77 -44 CURVE SMOOTH",
"46 -75 OFFCURVE",
"82 -110 OFFCURVE",
"113 -90 CURVE SMOOTH"
);
},
{
closed = 1;
nodes = (
"139 160 OFFCURVE",
"165 186 OFFCURVE",
"165 218 CURVE SMOOTH",
"165 249 OFFCURVE",
"139 275 OFFCURVE",
"108 275 CURVE SMOOTH",
"76 275 OFFCURVE",
"50 249 OFFCURVE",
"50 218 CURVE SMOOTH",
"50 186 OFFCURVE",
"76 160 OFFCURVE",
"108 160 CURVE SMOOTH"
);
}
);
width = 230;
}
);
leftMetricsKey = "=H";
rightMetricsKey = "=H";
unicode = 003B;
},
{
glyphname = exclam;
lastChange = "2020-01-20 10:59:39 +0000";
layers = (
{
backgroundImage = {
crop = "{{0, 0}, {38, 68}}";
imagePath = images/_exclam.jpg;
locked = "1";
transform = "{3.57279, -0.38476, 0.38476, 3.57279, -210, 5}";
};
layerId = "15BDFF71-2BAF-4479-A38F-4FA7A571BE82";
paths = (
{
closed = 1;
nodes = (
"150 253 LINE",
"165 643 LINE",
"50 643 LINE",
"65 253 LINE"
);
},
{
closed = 1;
nodes = (
"139 -7 OFFCURVE",
"165 19 OFFCURVE",
"165 51 CURVE SMOOTH",
"165 82 OFFCURVE",
"139 108 OFFCURVE",
"108 108 CURVE SMOOTH",
"76 108 OFFCURVE",
"50 82 OFFCURVE",
"50 51 CURVE SMOOTH",
"50 19 OFFCURVE",
"76 -7 OFFCURVE",
"108 -7 CURVE SMOOTH"
);
},
{
closed = 1;
nodes = (
"131 210 OFFCURVE",
"150 229 OFFCURVE",
"150 253 CURVE SMOOTH",
"150 276 OFFCURVE",
"131 295 OFFCURVE",
"108 295 CURVE SMOOTH",
"84 295 OFFCURVE",
"65 276 OFFCURVE",
"65 253 CURVE SMOOTH",
"65 229 OFFCURVE",
"84 210 OFFCURVE",
"108 210 CURVE SMOOTH"
);
},
{
closed = 1;
nodes = (
"139 585 OFFCURVE",
"165 611 OFFCURVE",
"165 643 CURVE SMOOTH",
"165 674 OFFCURVE",
"139 700 OFFCURVE",
"108 700 CURVE SMOOTH",
"76 700 OFFCURVE",
"50 674 OFFCURVE",
"50 643 CURVE SMOOTH",
"50 611 OFFCURVE",
"76 585 OFFCURVE",
"108 585 CURVE SMOOTH"
);
}
);
width = 215;
}
);
leftMetricsKey = "=H";
rightMetricsKey = "=H";
unicode = 0021;
},
{
glyphname = question;
lastChange = "2020-01-20 10:59:39 +0000";
layers = (
{
backgroundImage = {
crop = "{{0, 0}, {54, 73}}";
imagePath = images/_questionmark.jpg;
locked = "1";
transform = "{13.20037, 0, 0, 13.20037, -126, -54}";
};
layerId = "15BDFF71-2BAF-4479-A38F-4FA7A571BE82";
paths = (
{
closed = 1;
nodes = (
"160 198 OFFCURVE",
"280 198 OFFCURVE",
"279 282 CURVE SMOOTH",
"278 342 LINE SMOOTH",
"277 380 OFFCURVE",
"417 369 OFFCURVE",
"417 534 CURVE SMOOTH",
"417 618 OFFCURVE",
"354 721 OFFCURVE",
"240 721 CURVE SMOOTH",
"135 721 OFFCURVE",
"79 659 OFFCURVE",
"56 602 CURVE SMOOTH",
"25 524 OFFCURVE",
"128 483 OFFCURVE",
"159 546 CURVE SMOOTH",
"170 568 OFFCURVE",
"185 592 OFFCURVE",
"227 592 CURVE SMOOTH",
"260 592 OFFCURVE",
"289 564 OFFCURVE",
"289 532 CURVE SMOOTH",
"289 500 OFFCURVE",
"268 468 OFFCURVE",
"222 457 CURVE SMOOTH",
"190 449 OFFCURVE",
"160 447 OFFCURVE",
"161 402 CURVE SMOOTH",
"162 357 OFFCURVE",
"160 317 OFFCURVE",
"160 282 CURVE SMOOTH"
);
},
{
closed = 1;
nodes = (
"268 -1 OFFCURVE",
"306 37 OFFCURVE",
"306 83 CURVE SMOOTH",
"306 129 OFFCURVE",
"268 167 OFFCURVE",
"222 167 CURVE SMOOTH",
"176 167 OFFCURVE",
"138 129 OFFCURVE",
"138 83 CURVE SMOOTH",
"138 37 OFFCURVE",
"176 -1 OFFCURVE",
"222 -1 CURVE SMOOTH"
);
}
);
width = 467;
}
);
leftMetricsKey = "=H";
rightMetricsKey = "=H";
unicode = 003F;
},
{
glyphname = asterisk;
lastChange = "2020-01-20 10:59:39 +0000";
layers = (
{
backgroundImage = {
crop = "{{0, 0}, {68, 68}}";
imagePath = images/_asterisk.jpg;
locked = "1";
transform = "{8.27829, 0, 0, 8.27829, -24, 197}";
};
layerId = "15BDFF71-2BAF-4479-A38F-4FA7A571BE82";
paths = (
{
closed = 1;
nodes = (
"276 290 OFFCURVE",
"292 306 OFFCURVE",
"292 326 CURVE SMOOTH",
"292 401 LINE SMOOTH",
"292 405 OFFCURVE",
"296 407 OFFCURVE",
"299 404 CURVE SMOOTH",
"352 351 LINE SMOOTH",
"366 337 OFFCURVE",
"389 337 OFFCURVE",
"403 350 CURVE",
"417 364 OFFCURVE",
"417 387 OFFCURVE",
"403 401 CURVE SMOOTH",
"349 455 LINE SMOOTH",
"346 458 OFFCURVE",
"348 462 OFFCURVE",
"352 462 CURVE SMOOTH",
"429 462 LINE SMOOTH",
"448 462 OFFCURVE",
"464 478 OFFCURVE",
"464 497 CURVE SMOOTH",
"464 517 OFFCURVE",
"448 533 OFFCURVE",
"429 533 CURVE SMOOTH",
"352 533 LINE SMOOTH",
"348 533 OFFCURVE",
"346 537 OFFCURVE",
"349 540 CURVE SMOOTH",
"403 594 LINE",
"417 607 OFFCURVE",
"417 630 OFFCURVE",
"403 643 CURVE",
"389 657 OFFCURVE",
"366 657 OFFCURVE",
"353 644 CURVE SMOOTH",
"299 590 LINE SMOOTH",
"296 587 OFFCURVE",
"292 589 OFFCURVE",
"292 593 CURVE SMOOTH",
"292 669 LINE SMOOTH",
"292 688 OFFCURVE",
"276 704 OFFCURVE",
"257 704 CURVE SMOOTH",
"237 704 OFFCURVE",
"221 688 OFFCURVE",
"221 669 CURVE SMOOTH",
"221 593 LINE SMOOTH",
"221 589 OFFCURVE",
"217 587 OFFCURVE",
"214 590 CURVE SMOOTH",
"160 644 LINE SMOOTH",
"147 657 OFFCURVE",
"124 657 OFFCURVE",
"110 643 CURVE",
"96 630 OFFCURVE",
"96 607 OFFCURVE",
"110 594 CURVE",
"164 540 LINE SMOOTH",
"167 537 OFFCURVE",
"165 533 OFFCURVE",
"161 533 CURVE SMOOTH",
"86 533 LINE SMOOTH",
"66 533 OFFCURVE",
"50 517 OFFCURVE",
"50 497 CURVE SMOOTH",
"50 478 OFFCURVE",
"66 462 OFFCURVE",
"86 462 CURVE SMOOTH",
"161 462 LINE SMOOTH",
"165 462 OFFCURVE",
"167 458 OFFCURVE",
"164 455 CURVE SMOOTH",
"110 401 LINE SMOOTH",
"96 387 OFFCURVE",
"96 364 OFFCURVE",
"110 350 CURVE",
"124 337 OFFCURVE",
"147 337 OFFCURVE",
"161 351 CURVE SMOOTH",
"214 404 LINE SMOOTH",
"217 407 OFFCURVE",
"221 405 OFFCURVE",
"221 401 CURVE SMOOTH",
"221 326 LINE SMOOTH",
"221 306 OFFCURVE",
"237 290 OFFCURVE",
"257 290 CURVE SMOOTH"
);
}
);
width = 514;
}
);
leftMetricsKey = "=H";
rightMetricsKey = "=H";
unicode = 002A;
},
{
glyphname = numbersign;
lastChange = "2020-01-20 10:59:39 +0000";
layers = (
{
backgroundImage = {
crop = "{{0, 0}, {93, 75}}";
imagePath = images/_numbersign.jpg;
locked = "1";
transform = "{13.43517, 0, 0, 13.43517, -214, -86}";
};
layerId = "15BDFF71-2BAF-4479-A38F-4FA7A571BE82";
paths = (
{
closed = 1;
nodes = (
"164 13 OFFCURVE",
"184 22 OFFCURVE",
"191 40 CURVE",
"250 204 LINE SMOOTH",
"252 208 OFFCURVE",
"257 211 OFFCURVE",
"261 211 CURVE SMOOTH",
"404 211 LINE SMOOTH",
"414 211 OFFCURVE",
"420 201 OFFCURVE",
"417 192 CURVE SMOOTH",
"371 65 LINE SMOOTH",
"364 47 OFFCURVE",
"374 25 OFFCURVE",
"393 19 CURVE SMOOTH",
"411 13 OFFCURVE",
"431 22 OFFCURVE",
"438 40 CURVE",
"497 204 LINE SMOOTH",
"499 208 OFFCURVE",
"504 211 OFFCURVE",
"508 211 CURVE SMOOTH",
"629 211 LINE SMOOTH",
"648 211 OFFCURVE",
"664 227 OFFCURVE",
"664 246 CURVE SMOOTH",
"664 266 OFFCURVE",
"648 282 OFFCURVE",
"629 282 CURVE SMOOTH",
"546 282 LINE SMOOTH",
"536 282 OFFCURVE",
"530 292 OFFCURVE",
"533 301 CURVE SMOOTH",
"582 437 LINE SMOOTH",
"584 441 OFFCURVE",
"589 444 OFFCURVE",
"593 444 CURVE SMOOTH",
"701 444 LINE SMOOTH",
"720 444 OFFCURVE",
"736 460 OFFCURVE",
"736 479 CURVE SMOOTH",
"736 499 OFFCURVE",
"720 515 OFFCURVE",
"701 515 CURVE SMOOTH",
"631 515 LINE SMOOTH",
"621 515 OFFCURVE",
"615 525 OFFCURVE",
"618 534 CURVE SMOOTH",
"665 663 LINE SMOOTH",
"672 681 OFFCURVE",
"662 702 OFFCURVE",
"644 708 CURVE SMOOTH",
"625 714 OFFCURVE",
"605 705 OFFCURVE",
"598 688 CURVE",
"538 522 LINE SMOOTH",
"536 518 OFFCURVE",
"531 515 OFFCURVE",
"527 515 CURVE SMOOTH",
"384 515 LINE SMOOTH",
"374 515 OFFCURVE",
"368 525 OFFCURVE",
"371 534 CURVE SMOOTH",
"418 663 LINE SMOOTH",
"425 681 OFFCURVE",
"415 702 OFFCURVE",
"397 708 CURVE SMOOTH",
"378 714 OFFCURVE",
"358 705 OFFCURVE",
"351 688 CURVE",
"291 522 LINE SMOOTH",
"289 518 OFFCURVE",
"284 515 OFFCURVE",
"280 515 CURVE SMOOTH",
"158 515 LINE SMOOTH",
"138 515 OFFCURVE",
"122 499 OFFCURVE",
"122 479 CURVE SMOOTH",
"122 460 OFFCURVE",
"138 444 OFFCURVE",
"158 444 CURVE SMOOTH",
"242 444 LINE SMOOTH",
"252 444 OFFCURVE",
"258 434 OFFCURVE",
"255 425 CURVE SMOOTH",
"206 289 LINE SMOOTH",
"204 285 OFFCURVE",
"199 282 OFFCURVE",
"195 282 CURVE SMOOTH",
"86 282 LINE SMOOTH",
"66 282 OFFCURVE",
"50 266 OFFCURVE",
"50 246 CURVE SMOOTH",
"50 227 OFFCURVE",
"66 211 OFFCURVE",
"86 211 CURVE SMOOTH",
"157 211 LINE SMOOTH",
"167 211 OFFCURVE",
"173 201 OFFCURVE",
"170 192 CURVE SMOOTH",
"124 65 LINE",
"116 47 OFFCURVE",
"127 25 OFFCURVE",
"146 19 CURVE SMOOTH"
);
},
{
closed = 1;
nodes = (
"289 282 OFFCURVE",
"283 292 OFFCURVE",
"286 301 CURVE SMOOTH",
"335 437 LINE SMOOTH",
"337 441 OFFCURVE",
"342 444 OFFCURVE",
"346 444 CURVE SMOOTH",
"489 444 LINE SMOOTH",
"499 444 OFFCURVE",
"505 434 OFFCURVE",
"502 425 CURVE SMOOTH",
"453 289 LINE SMOOTH",
"451 285 OFFCURVE",
"446 282 OFFCURVE",
"442 282 CURVE SMOOTH",
"299 282 LINE SMOOTH"
);
}
);
width = 786;
}
);
leftMetricsKey = "=H";
rightMetricsKey = "=H";
unicode = 0023;
},
{
glyphname = slash;
lastChange = "2020-01-20 10:59:39 +0000";
layers = (
{
backgroundImage = {
crop = "{{0, 0}, {90, 79}}";
imagePath = images/_slash.jpg;
locked = "1";
transform = "{10.81196, 0, 0, 10.81196, -158, -76}";
};
layerId = "15BDFF71-2BAF-4479-A38F-4FA7A571BE82";
paths = (
{
closed = 1;
nodes = (
"579 519 LINE",
"501 592 LINE",
"64 124 LINE",
"143 51 LINE"
);
},
{
closed = 1;
nodes = (
"88 28 OFFCURVE",
"122 29 OFFCURVE",
"143 51 CURVE SMOOTH",
"164 73 OFFCURVE",
"161 106 OFFCURVE",
"140 126 CURVE SMOOTH",
"118 147 OFFCURVE",
"84 146 OFFCURVE",
"64 124 CURVE SMOOTH",
"44 102 OFFCURVE",
"45 69 OFFCURVE",
"67 48 CURVE SMOOTH"
);
},
{
closed = 1;
nodes = (
"525 496 OFFCURVE",
"559 497 OFFCURVE",
"579 519 CURVE SMOOTH",
"599 541 OFFCURVE",
"598 575 OFFCURVE",
"577 594 CURVE SMOOTH",
"554 614 OFFCURVE",
"521 614 OFFCURVE",
"501 592 CURVE SMOOTH",
"481 569 OFFCURVE",
"482 537 OFFCURVE",
"504 516 CURVE SMOOTH"
);
}
);
width = 643;
}
);
leftMetricsKey = "=H";
rightMetricsKey = "=H";
unicode = 002F;
},
{
glyphname = backslash;
lastChange = "2020-01-20 10:59:39 +0000";
layers = (
{
layerId = "15BDFF71-2BAF-4479-A38F-4FA7A571BE82";
paths = (
{
closed = 1;
nodes = (
"579 124 LINE",
"142 592 LINE",
"64 519 LINE",
"500 51 LINE"
);
},
{
closed = 1;
nodes = (
"598 69 OFFCURVE",
"599 102 OFFCURVE",
"579 124 CURVE SMOOTH",
"559 146 OFFCURVE",
"525 147 OFFCURVE",
"503 126 CURVE SMOOTH",
"482 106 OFFCURVE",
"479 73 OFFCURVE",
"500 51 CURVE SMOOTH",
"521 29 OFFCURVE",
"555 28 OFFCURVE",
"576 48 CURVE SMOOTH"
);
},
{
closed = 1;
nodes = (
"161 537 OFFCURVE",
"162 569 OFFCURVE",
"142 592 CURVE SMOOTH",
"122 614 OFFCURVE",
"89 614 OFFCURVE",
"66 594 CURVE SMOOTH",
"45 575 OFFCURVE",
"44 541 OFFCURVE",
"64 519 CURVE SMOOTH",
"84 497 OFFCURVE",
"118 496 OFFCURVE",
"139 516 CURVE SMOOTH"
);
}
);
width = 643;
}
);
leftMetricsKey = "=H";
rightMetricsKey = "=H";
unicode = 005C;
},
{
glyphname = parenleft;
lastChange = "2020-01-20 10:59:39 +0000";
layers = (
{
backgroundImage = {
crop = "{{0, 0}, {45, 72}}";
imagePath = images/_parenthesis.jpg;
locked = "1";
transform = "{17.394, 0, 0, 17.394, -210, -336}";
};
layerId = "15BDFF71-2BAF-4479-A38F-4FA7A571BE82";
paths = (
{
closed = 1;
nodes = (
"211 -186 OFFCURVE",
"334 -140 OFFCURVE",
"275 -30 CURVE SMOOTH",
"241 34 OFFCURVE",
"197 142 OFFCURVE",
"198 297 CURVE SMOOTH",
"199 428 OFFCURVE",
"230 526 OFFCURVE",
"292 639 CURVE SMOOTH",
"336 720 OFFCURVE",
"212 771 OFFCURVE",
"155 684 CURVE SMOOTH",
"111 617 OFFCURVE",
"50 499 OFFCURVE",
"50 278 CURVE SMOOTH",
"50 81 OFFCURVE",
"111 -46 OFFCURVE",
"158 -112 CURVE SMOOTH"
);
}
);
width = 351;
}
);
leftMetricsKey = "=H";
rightMetricsKey = "=H";
unicode = 0028;
},
{
glyphname = parenright;
lastChange = "2020-01-20 10:59:39 +0000";
layers = (
{
layerId = "15BDFF71-2BAF-4479-A38F-4FA7A571BE82";
paths = (
{
closed = 1;
nodes = (
"240 -46 OFFCURVE",
"301 81 OFFCURVE",
"301 278 CURVE SMOOTH",
"301 499 OFFCURVE",
"240 617 OFFCURVE",
"196 684 CURVE SMOOTH",
"139 771 OFFCURVE",
"15 720 OFFCURVE",
"59 639 CURVE SMOOTH",
"121 526 OFFCURVE",
"152 428 OFFCURVE",
"153 297 CURVE SMOOTH",
"154 142 OFFCURVE",
"110 34 OFFCURVE",
"76 -30 CURVE SMOOTH",
"17 -140 OFFCURVE",
"140 -186 OFFCURVE",
"193 -112 CURVE SMOOTH"
);
}
);
width = 351;
}
);
leftMetricsKey = "=H";
rightMetricsKey = "=H";
unicode = 0029;
},
{
glyphname = braceleft;
lastChange = "2020-01-20 10:59:39 +0000";
layers = (
{
backgroundImage = {
crop = "{{0, 0}, {42, 66}}";
imagePath = images/_brace.jpg;
locked = "1";
transform = "{16.34582, 0, 0, 16.34582, -182, -272}";
};
layerId = "15BDFF71-2BAF-4479-A38F-4FA7A571BE82";
paths = (
{
closed = 1;
nodes = (
"366 -127 OFFCURVE",
"366 -19 OFFCURVE",
"285 -19 CURVE SMOOTH",
"234 -19 OFFCURVE",
"233 -22 OFFCURVE",
"233 130 CURVE SMOOTH",
"233 207 OFFCURVE",
"228 233 OFFCURVE",
"216 259 CURVE SMOOTH",
"211 270 OFFCURVE",
"211 280 OFFCURVE",
"215 291 CURVE SMOOTH",
"223 312 OFFCURVE",
"233 347 OFFCURVE",
"233 411 CURVE SMOOTH",
"233 567 OFFCURVE",
"213 574 OFFCURVE",
"285 574 CURVE SMOOTH",
"366 574 OFFCURVE",
"366 677 OFFCURVE",
"285 677 CURVE SMOOTH",
"223 677 OFFCURVE",
"141 664 OFFCURVE",
"133 574 CURVE SMOOTH",
"124 471 OFFCURVE",
"171 345 OFFCURVE",
"89 330 CURVE SMOOTH",
"37 321 OFFCURVE",
"36 232 OFFCURVE",
"89 222 CURVE SMOOTH",
"171 206 OFFCURVE",
"124 114 OFFCURVE",
"133 -27 CURVE SMOOTH",
"138 -111 OFFCURVE",
"177 -127 OFFCURVE",
"285 -127 CURVE SMOOTH"
);
}
);
width = 396;
}
);
leftMetricsKey = "=H";
rightMetricsKey = "=H";
unicode = 007B;
},
{
glyphname = braceright;
lastChange = "2020-01-20 10:59:39 +0000";
layers = (
{
layerId = "15BDFF71-2BAF-4479-A38F-4FA7A571BE82";
paths = (
{
closed = 1;
nodes = (
"219 -127 OFFCURVE",
"258 -111 OFFCURVE",
"263 -27 CURVE SMOOTH",
"272 114 OFFCURVE",
"225 206 OFFCURVE",
"307 222 CURVE SMOOTH",
"360 232 OFFCURVE",
"359 321 OFFCURVE",
"307 330 CURVE SMOOTH",
"225 345 OFFCURVE",
"272 471 OFFCURVE",
"263 574 CURVE SMOOTH",
"255 664 OFFCURVE",
"173 677 OFFCURVE",
"111 677 CURVE SMOOTH",
"30 677 OFFCURVE",
"30 574 OFFCURVE",
"111 574 CURVE SMOOTH",
"183 574 OFFCURVE",
"163 567 OFFCURVE",
"163 411 CURVE SMOOTH",
"163 347 OFFCURVE",
"173 312 OFFCURVE",
"181 291 CURVE SMOOTH",
"185 280 OFFCURVE",
"185 270 OFFCURVE",
"180 259 CURVE SMOOTH",
"168 233 OFFCURVE",
"163 207 OFFCURVE",
"163 130 CURVE SMOOTH",
"163 -22 OFFCURVE",
"162 -19 OFFCURVE",
"111 -19 CURVE SMOOTH",
"30 -19 OFFCURVE",
"30 -127 OFFCURVE",
"111 -127 CURVE SMOOTH"
);
}
);
width = 396;
}
);
leftMetricsKey = "=H";
rightMetricsKey = "=H";
unicode = 007D;
},
{
glyphname = bracketleft;
lastChange = "2020-01-20 10:59:39 +0000";
layers = (
{
backgroundImage = {
crop = "{{0, 0}, {47, 74}}";
imagePath = images/_bracket.jpg;
locked = "1";
transform = "{15.89285, 0, 0, 15.89285, -215, -310}";
};
layerId = "15BDFF71-2BAF-4479-A38F-4FA7A571BE82";
paths = (
{
closed = 1;
nodes = (
"280 -140 LINE SMOOTH",
"312 -140 OFFCURVE",
"338 -114 OFFCURVE",
"338 -81 CURVE SMOOTH",
"338 -49 OFFCURVE",
"312 -23 OFFCURVE",
"280 -23 CURVE SMOOTH",
"187 -23 LINE SMOOTH",
"176 -23 OFFCURVE",
"167 -14 OFFCURVE",
"167 -3 CURVE SMOOTH",
"167 557 LINE SMOOTH",
"167 568 OFFCURVE",
"176 577 OFFCURVE",
"187 577 CURVE SMOOTH",
"280 577 LINE SMOOTH",
"312 577 OFFCURVE",
"338 603 OFFCURVE",
"338 636 CURVE SMOOTH",
"338 668 OFFCURVE",
"312 694 OFFCURVE",
"280 694 CURVE SMOOTH",
"101 694 LINE SMOOTH",
"72 694 OFFCURVE",
"50 672 OFFCURVE",
"50 643 CURVE SMOOTH",
"50 -89 LINE SMOOTH",
"50 -118 OFFCURVE",
"72 -140 OFFCURVE",
"101 -140 CURVE SMOOTH"
);
}
);
width = 388;
}
);
leftMetricsKey = "=H";
rightMetricsKey = "=H";
unicode = 005B;
},
{
glyphname = bracketright;
lastChange = "2020-01-20 10:59:39 +0000";
layers = (
{
layerId = "15BDFF71-2BAF-4479-A38F-4FA7A571BE82";
paths = (
{
closed = 1;
nodes = (
"287 -140 LINE SMOOTH",
"316 -140 OFFCURVE",
"338 -118 OFFCURVE",
"338 -89 CURVE SMOOTH",
"338 643 LINE SMOOTH",
"338 672 OFFCURVE",
"316 694 OFFCURVE",
"287 694 CURVE SMOOTH",
"108 694 LINE SMOOTH",
"76 694 OFFCURVE",
"50 668 OFFCURVE",
"50 636 CURVE SMOOTH",
"50 603 OFFCURVE",
"76 577 OFFCURVE",
"108 577 CURVE SMOOTH",
"201 577 LINE SMOOTH",
"212 577 OFFCURVE",
"221 568 OFFCURVE",
"221 557 CURVE SMOOTH",
"221 -3 LINE SMOOTH",
"221 -14 OFFCURVE",
"212 -23 OFFCURVE",
"201 -23 CURVE SMOOTH",
"108 -23 LINE SMOOTH",
"76 -23 OFFCURVE",
"50 -49 OFFCURVE",
"50 -81 CURVE SMOOTH",
"50 -114 OFFCURVE",
"76 -140 OFFCURVE",
"108 -140 CURVE SMOOTH"
);
}
);
width = 388;
}
);
leftMetricsKey = "=H";
rightMetricsKey = "=H";
unicode = 005D;
},
{
glyphname = hyphen;
lastChange = "2020-01-20 10:59:39 +0000";
layers = (
{
backgroundImage = {
crop = "{{0, 0}, {98, 57}}";
imagePath = images/_hyphen.jpg;
locked = "1";
transform = "{7.06881, 0, 0, 7.06881, -166, 59}";
};
layerId = "15BDFF71-2BAF-4479-A38F-4FA7A571BE82";
paths = (
{
closed = 1;
nodes = (
"329 250 LINE",
"329 306 LINE",
"77 306 LINE",
"77 250 LINE"
);
},
{
closed = 1;
nodes = (
"93 250 OFFCURVE",
"106 263 OFFCURVE",
"106 278 CURVE SMOOTH",
"106 293 OFFCURVE",
"93 306 OFFCURVE",
"78 306 CURVE SMOOTH",
"63 306 OFFCURVE",
"50 293 OFFCURVE",
"50 278 CURVE SMOOTH",
"50 263 OFFCURVE",
"63 250 OFFCURVE",
"78 250 CURVE SMOOTH"
);
},
{
closed = 1;
nodes = (
"344 250 OFFCURVE",
"357 263 OFFCURVE",
"357 278 CURVE SMOOTH",
"357 293 OFFCURVE",
"344 306 OFFCURVE",
"329 306 CURVE SMOOTH",
"314 306 OFFCURVE",
"301 293 OFFCURVE",
"301 278 CURVE SMOOTH",
"301 263 OFFCURVE",
"314 250 OFFCURVE",
"329 250 CURVE SMOOTH"
);
}
);
width = 407;
}
);
leftMetricsKey = "=H";
rightMetricsKey = "=H";
unicode = 002D;
},
{
glyphname = underscore;
lastChange = "2020-01-20 10:59:39 +0000";
layers = (
{
backgroundImage = {
crop = "{{0, 0}, {115, 31}}";
imagePath = images/_underscore.jpg;
locked = "1";
transform = "{5.33348, 0, 0, 5.33348, -27, -176}";
};
layerId = "15BDFF71-2BAF-4479-A38F-4FA7A571BE82";
paths = (
{
closed = 1;
nodes = (
"472 -104 LINE",
"472 -60 LINE",
"71 -60 LINE",
"71 -104 LINE"
);
},
{
closed = 1;
nodes = (
"84 -104 OFFCURVE",
"94 -94 OFFCURVE",
"94 -82 CURVE SMOOTH",
"94 -70 OFFCURVE",
"84 -60 OFFCURVE",
"72 -60 CURVE SMOOTH",
"60 -60 OFFCURVE",
"50 -70 OFFCURVE",
"50 -82 CURVE SMOOTH",
"50 -94 OFFCURVE",
"60 -104 OFFCURVE",
"72 -104 CURVE SMOOTH"
);
},
{
closed = 1;
nodes = (
"484 -104 OFFCURVE",
"494 -94 OFFCURVE",
"494 -82 CURVE SMOOTH",
"494 -70 OFFCURVE",
"484 -60 OFFCURVE",
"472 -60 CURVE SMOOTH",
"460 -60 OFFCURVE",
"450 -70 OFFCURVE",
"450 -82 CURVE SMOOTH",
"450 -94 OFFCURVE",
"460 -104 OFFCURVE",
"472 -104 CURVE SMOOTH"
);
}
);
width = 544;
}
);
leftMetricsKey = "=H";
rightMetricsKey = "=H";
unicode = 005F;
},
{
glyphname = quotedbl;
lastChange = "2020-01-20 10:59:39 +0000";
layers = (
{
layerId = "15BDFF71-2BAF-4479-A38F-4FA7A571BE82";
paths = (
{
closed = 1;
nodes = (
"269 464 OFFCURVE",
"276 479 OFFCURVE",
"283 506 CURVE SMOOTH",
"294 549 OFFCURVE",
"309 613 OFFCURVE",
"309 646 CURVE SMOOTH",
"309 677 OFFCURVE",
"283 703 OFFCURVE",
"252 703 CURVE SMOOTH",
"220 703 OFFCURVE",
"194 677 OFFCURVE",
"194 646 CURVE SMOOTH",
"194 613 OFFCURVE",
"211 550 OFFCURVE",
"220 506 CURVE SMOOTH",
"226 477 OFFCURVE",
"234 464 OFFCURVE",
"252 464 CURVE SMOOTH"
);
},
{
closed = 1;
nodes = (
"125 464 OFFCURVE",
"132 479 OFFCURVE",
"139 506 CURVE SMOOTH",
"150 549 OFFCURVE",
"165 613 OFFCURVE",
"165 646 CURVE SMOOTH",
"165 677 OFFCURVE",
"139 703 OFFCURVE",
"108 703 CURVE SMOOTH",
"76 703 OFFCURVE",
"50 677 OFFCURVE",
"50 646 CURVE SMOOTH",
"50 613 OFFCURVE",
"67 550 OFFCURVE",
"76 506 CURVE SMOOTH",
"82 477 OFFCURVE",
"90 464 OFFCURVE",
"108 464 CURVE SMOOTH"
);
}
);
width = 359;
}
);
leftMetricsKey = "=H";
rightMetricsKey = "=H";
unicode = 0022;
},
{
glyphname = quotesingle;
lastChange = "2020-01-20 10:59:39 +0000";
layers = (
{
backgroundImage = {
crop = "{{0, 0}, {46, 62}}";
imagePath = images/_quotesingle.jpg;
locked = "1";
transform = "{7.10761, 0, 0, 7.10761, -56, 373}";
};
layerId = "15BDFF71-2BAF-4479-A38F-4FA7A571BE82";
paths = (
{
closed = 1;
nodes = (
"125 464 OFFCURVE",
"132 479 OFFCURVE",
"139 506 CURVE SMOOTH",
"150 549 OFFCURVE",
"165 613 OFFCURVE",
"165 646 CURVE SMOOTH",
"165 677 OFFCURVE",
"139 703 OFFCURVE",
"108 703 CURVE SMOOTH",
"76 703 OFFCURVE",
"50 677 OFFCURVE",
"50 646 CURVE SMOOTH",
"50 613 OFFCURVE",
"67 550 OFFCURVE",
"76 506 CURVE SMOOTH",
"82 477 OFFCURVE",
"90 464 OFFCURVE",
"108 464 CURVE SMOOTH"
);
}
);
width = 215;
}
);
leftMetricsKey = "=H";
rightMetricsKey = "=H";
unicode = 0027;
},
{
glyphname = at;
lastChange = "2020-01-20 10:59:39 +0000";
layers = (
{
backgroundImage = {
crop = "{{0, 0}, {64, 67}}";
imagePath = "images/_@.jpg";
locked = "1";
transform = "{16.6221, 0, 0, 16.6221, -93, -249}";
};
layerId = "15BDFF71-2BAF-4479-A38F-4FA7A571BE82";
paths = (
{
closed = 1;
nodes = (
"475 -75 OFFCURVE",
"497 -73 OFFCURVE",
"518 -70 CURVE SMOOTH",
"552 -64 OFFCURVE",
"574 -45 OFFCURVE",
"562 -23 CURVE SMOOTH",
"548 3 OFFCURVE",
"531 3 OFFCURVE",
"509 0 CURVE SMOOTH",
"491 -3 OFFCURVE",
"472 -5 OFFCURVE",
"453 -5 CURVE SMOOTH",
"270 -5 OFFCURVE",
"122 137 OFFCURVE",
"122 314 CURVE SMOOTH",
"122 490 OFFCURVE",
"270 632 OFFCURVE",
"453 632 CURVE SMOOTH",
"635 632 OFFCURVE",
"783 490 OFFCURVE",
"783 314 CURVE SMOOTH",
"783 245 OFFCURVE",
"791 137 OFFCURVE",
"694 137 CURVE SMOOTH",
"644 137 OFFCURVE",
"601 192 OFFCURVE",
"603 241 CURVE SMOOTH",
"612 448 LINE SMOOTH",
"615 506 OFFCURVE",
"583 515 OFFCURVE",
"559 515 CURVE SMOOTH",
"551 515 OFFCURVE",
"544 513 OFFCURVE",
"538 509 CURVE SMOOTH",
"525 502 OFFCURVE",
"516 499 OFFCURVE",
"502 507 CURVE SMOOTH",
"483 517 OFFCURVE",
"462 522 OFFCURVE",
"440 522 CURVE SMOOTH",
"350 522 OFFCURVE",
"278 432 OFFCURVE",
"278 321 CURVE SMOOTH",
"278 210 OFFCURVE",
"350 119 OFFCURVE",
"440 119 CURVE SMOOTH",
"459 119 OFFCURVE",
"477 123 OFFCURVE",
"494 131 CURVE SMOOTH",
"512 139 OFFCURVE",
"529 138 OFFCURVE",
"545 128 CURVE SMOOTH",
"586 101 OFFCURVE",
"659 72 OFFCURVE",
"722 72 CURVE SMOOTH",
"845 72 OFFCURVE",
"855 207 OFFCURVE",
"855 314 CURVE SMOOTH",
"855 529 OFFCURVE",
"675 702 OFFCURVE",
"453 702 CURVE SMOOTH",
"230 702 OFFCURVE",
"50 528 OFFCURVE",
"50 314 CURVE SMOOTH",
"50 99 OFFCURVE",
"230 -75 OFFCURVE",
"453 -75 CURVE SMOOTH"
);
},
{
closed = 1;
nodes = (
"386 190 OFFCURVE",
"343 247 OFFCURVE",
"343 316 CURVE SMOOTH",
"343 385 OFFCURVE",
"386 441 OFFCURVE",
"440 441 CURVE SMOOTH",
"493 441 OFFCURVE",
"537 385 OFFCURVE",
"537 316 CURVE SMOOTH",
"537 247 OFFCURVE",
"493 190 OFFCURVE",
"440 190 CURVE SMOOTH"
);
}
);
width = 905;
}
);
leftMetricsKey = "=H";
rightMetricsKey = "=H";
unicode = 0040;
},
{
glyphname = ampersand;
lastChange = "2020-01-20 10:59:39 +0000";
layers = (
{
backgroundImage = {
crop = "{{0, 0}, {63, 71}}";
imagePath = "images/_&.jpg";
locked = "1";
transform = "{13.22185, 0, 0, 13.22185, -108, -186}";
};
layerId = "15BDFF71-2BAF-4479-A38F-4FA7A571BE82";
paths = (
{
closed = 1;
nodes = (
"352 -6 OFFCURVE",
"425 42 OFFCURVE",
"461 112 CURVE SMOOTH",
"463 116 OFFCURVE",
"467 116 OFFCURVE",
"470 114 CURVE",
"554 40 LINE SMOOTH",
"582 16 OFFCURVE",
"615 12 OFFCURVE",
"632 32 CURVE SMOOTH",
"649 51 OFFCURVE",
"642 83 OFFCURVE",
"614 108 CURVE SMOOTH",
"507 203 LINE",
"505 205 OFFCURVE",
"505 206 OFFCURVE",
"506 208 CURVE SMOOTH",
"558 318 LINE SMOOTH",
"570 344 OFFCURVE",
"561 370 OFFCURVE",
"538 381 CURVE SMOOTH",
"514 392 OFFCURVE",
"488 381 OFFCURVE",
"476 357 CURVE SMOOTH",
"437 275 LINE",
"435 272 OFFCURVE",
"431 271 OFFCURVE",
"428 273 CURVE",
"314 375 LINE",
"311 378 OFFCURVE",
"311 383 OFFCURVE",
"315 385 CURVE SMOOTH",
"366 411 OFFCURVE",
"401 463 OFFCURVE",
"401 525 CURVE SMOOTH",
"401 611 OFFCURVE",
"331 681 OFFCURVE",
"245 681 CURVE SMOOTH",
"158 681 OFFCURVE",
"88 611 OFFCURVE",
"88 525 CURVE SMOOTH",
"88 478 OFFCURVE",
"108 436 OFFCURVE",
"144 405 CURVE",
"147 402 OFFCURVE",
"147 398 OFFCURVE",
"144 396 CURVE SMOOTH",
"86 357 OFFCURVE",
"50 289 OFFCURVE",
"50 212 CURVE SMOOTH",
"50 91 OFFCURVE",
"147 -6 OFFCURVE",
"268 -6 CURVE SMOOTH"
);
},
{
closed = 1;
nodes = (
"196 84 OFFCURVE",
"140 140 OFFCURVE",
"140 210 CURVE SMOOTH",
"140 265 OFFCURVE",
"174 313 OFFCURVE",
"223 331 CURVE",
"224 332 OFFCURVE",
"226 331 OFFCURVE",
"227 330 CURVE",
"389 186 LINE",
"390 185 OFFCURVE",
"391 182 OFFCURVE",
"390 180 CURVE SMOOTH",
"349 104 OFFCURVE",
"323 84 OFFCURVE",
"267 84 CURVE SMOOTH"
);
},
{
closed = 1;
nodes = (
"211 472 OFFCURVE",
"176 495 OFFCURVE",
"176 529 CURVE SMOOTH",
"176 569 OFFCURVE",
"204 591 OFFCURVE",
"245 591 CURVE SMOOTH",
"282 591 OFFCURVE",
"311 559 OFFCURVE",
"311 525 CURVE SMOOTH",
"311 495 OFFCURVE",
"276 466 OFFCURVE",
"251 444 CURVE",
"249 442 OFFCURVE",
"247 442 OFFCURVE",
"245 444 CURVE"
);
}
);
width = 691;
}
);
leftMetricsKey = "=H";
rightMetricsKey = "=H";
unicode = 0026;
},
{
glyphname = bar;
lastChange = "2020-01-20 10:59:39 +0000";
layers = (
{
backgroundImage = {
crop = "{{0, 0}, {40, 76}}";
imagePath = images/_bar.jpg;
locked = "1";
transform = "{15.57529, 0.84258, -0.84258, 15.57529, -141, -335}";
};
layerId = "15BDFF71-2BAF-4479-A38F-4FA7A571BE82";
paths = (
{
closed = 1;
nodes = (
"184 -51 LINE",
"184 627 LINE",
"50 627 LINE",
"50 -51 LINE"
);
},
{
closed = 1;
nodes = (
"154 -119 OFFCURVE",
"184 -89 OFFCURVE",
"184 -52 CURVE SMOOTH",
"184 -15 OFFCURVE",
"154 15 OFFCURVE",
"117 15 CURVE SMOOTH",
"80 15 OFFCURVE",
"50 -15 OFFCURVE",
"50 -52 CURVE SMOOTH",
"50 -89 OFFCURVE",
"80 -119 OFFCURVE",
"117 -119 CURVE SMOOTH"
);
},
{
closed = 1;
nodes = (
"154 560 OFFCURVE",
"184 590 OFFCURVE",
"184 627 CURVE SMOOTH",
"184 663 OFFCURVE",
"155 694 OFFCURVE",
"117 694 CURVE SMOOTH",
"80 694 OFFCURVE",
"50 664 OFFCURVE",
"50 627 CURVE SMOOTH",
"50 590 OFFCURVE",
"80 560 OFFCURVE",
"117 560 CURVE SMOOTH"
);
}
);
width = 234;
}
);
leftMetricsKey = "=H";
rightMetricsKey = "=H";
unicode = 007C;
},
{
glyphname = dollar;
lastChange = "2020-01-20 10:59:39 +0000";
layers = (
{
background = {
paths = (
{
closed = 1;
nodes = (
"530 535 OFFCURVE",
"499 630 OFFCURVE",
"326 630 CURVE SMOOTH",
"222 630 OFFCURVE",
"147 590 OFFCURVE",
"147 521 CURVE SMOOTH",
"147 442 OFFCURVE",
"219 414 OFFCURVE",
"326 414 CURVE SMOOTH",
"467 414 OFFCURVE",
"613 354 OFFCURVE",
"613 193 CURVE SMOOTH",
"613 40 OFFCURVE",
"461 -19 OFFCURVE",
"326 -19 CURVE SMOOTH",
"161 -19 OFFCURVE",
"-11 76 OFFCURVE",
"45 131 CURVE SMOOTH",
"98 183 OFFCURVE",
"92 61 OFFCURVE",
"326 61 CURVE SMOOTH",
"423 61 OFFCURVE",
"540 87 OFFCURVE",
"537 203 CURVE SMOOTH",
"534 308 OFFCURVE",
"439 339 OFFCURVE",
"326 339 CURVE SMOOTH",
"203 339 OFFCURVE",
"71 393 OFFCURVE",
"71 525 CURVE SMOOTH",
"71 635 OFFCURVE",
"184 709 OFFCURVE",
"326 709 CURVE SMOOTH",
"447 709 OFFCURVE",
"620 644 OFFCURVE",
"573 587 CURVE SMOOTH"
);
}
);
};
backgroundImage = {
crop = "{{0, 0}, {50, 69}}";
imagePath = images/_dollar.jpg;
locked = "1";
transform = "{15.45857, 0, 0, 15.45857, -102, -169}";
};
layerId = "15BDFF71-2BAF-4479-A38F-4FA7A571BE82";
paths = (
{
closed = 1;
nodes = (
"358 -46 OFFCURVE",
"386 -18 OFFCURVE",
"386 16 CURVE SMOOTH",
"386 23 LINE SMOOTH",
"386 32 OFFCURVE",
"393 40 OFFCURVE",
"402 42 CURVE SMOOTH",
"517 64 OFFCURVE",
"590 135 OFFCURVE",
"590 232 CURVE SMOOTH",
"590 357 OFFCURVE",
"485 437 OFFCURVE",
"322 437 CURVE SMOOTH",
"232 437 OFFCURVE",
"191 458 OFFCURVE",
"191 504 CURVE SMOOTH",
"191 546 OFFCURVE",
"241 573 OFFCURVE",
"322 573 CURVE SMOOTH",
"394 573 OFFCURVE",
"434 553 OFFCURVE",
"463 539 CURVE SMOOTH",
"507 518 OFFCURVE",
"527 519 OFFCURVE",
"550 546 CURVE SMOOTH",
"592 596 OFFCURVE",
"515 655 OFFCURVE",
"403 675 CURVE SMOOTH",
"393 677 OFFCURVE",
"386 685 OFFCURVE",
"386 695 CURVE SMOOTH",
"386 702 LINE SMOOTH",
"386 736 OFFCURVE",
"358 764 OFFCURVE",
"324 764 CURVE SMOOTH",
"289 764 OFFCURVE",
"261 736 OFFCURVE",
"261 702 CURVE SMOOTH",
"261 693 LINE SMOOTH",
"261 684 OFFCURVE",
"255 676 OFFCURVE",
"245 674 CURVE SMOOTH",
"148 652 OFFCURVE",
"82 589 OFFCURVE",
"82 508 CURVE SMOOTH",
"82 402 OFFCURVE",
"178 331 OFFCURVE",
"322 331 CURVE SMOOTH",
"428 331 OFFCURVE",
"478 301 OFFCURVE",
"480 239 CURVE SMOOTH",
"482 177 OFFCURVE",
"428 144 OFFCURVE",
"322 144 CURVE SMOOTH",
"214 144 OFFCURVE",
"172 173 OFFCURVE",
"145 193 CURVE SMOOTH",
"110 219 OFFCURVE",
"91 219 OFFCURVE",
"67 196 CURVE SMOOTH",
"9 140 OFFCURVE",
"110 63 OFFCURVE",
"244 41 CURVE SMOOTH",
"254 39 OFFCURVE",
"261 31 OFFCURVE",
"261 21 CURVE SMOOTH",
"261 16 LINE SMOOTH",
"261 -18 OFFCURVE",
"289 -46 OFFCURVE",
"324 -46 CURVE SMOOTH"
);
}
);
width = 640;
}
);
leftMetricsKey = "=H";
rightMetricsKey = "=H";
unicode = 0024;
},
{
glyphname = plus;
lastChange = "2020-01-20 10:59:39 +0000";
layers = (
{
backgroundImage = {
crop = "{{0, 0}, {62, 79}}";
imagePath = images/_plus.jpg;
locked = "1";
transform = "{8.99528, 0, 0, 8.99528, 1, -69}";
};
layerId = "15BDFF71-2BAF-4479-A38F-4FA7A571BE82";
paths = (
{
closed = 1;
nodes = (
"483 257 LINE",
"483 330 LINE",
"87 330 LINE",
"87 257 LINE"
);
},
{
closed = 1;
nodes = (
"107 257 OFFCURVE",
"123 273 OFFCURVE",
"123 294 CURVE SMOOTH",
"123 314 OFFCURVE",
"107 330 OFFCURVE",
"87 330 CURVE SMOOTH",
"66 330 OFFCURVE",
"50 314 OFFCURVE",
"50 294 CURVE SMOOTH",
"50 273 OFFCURVE",
"66 257 OFFCURVE",
"87 257 CURVE SMOOTH"
);
},
{
closed = 1;
nodes = (
"305 59 OFFCURVE",
"321 75 OFFCURVE",
"321 95 CURVE SMOOTH",
"321 116 OFFCURVE",
"305 132 OFFCURVE",
"285 132 CURVE SMOOTH",
"264 132 OFFCURVE",
"248 116 OFFCURVE",
"248 95 CURVE SMOOTH",
"248 75 OFFCURVE",
"264 59 OFFCURVE",
"285 59 CURVE SMOOTH"
);
},
{
closed = 1;
nodes = (
"321 95 LINE",
"321 491 LINE",
"248 491 LINE",
"248 95 LINE"
);
},
{
closed = 1;
nodes = (
"503 257 OFFCURVE",
"519 273 OFFCURVE",
"519 294 CURVE SMOOTH",
"519 314 OFFCURVE",
"503 330 OFFCURVE",
"483 330 CURVE SMOOTH",
"462 330 OFFCURVE",
"446 314 OFFCURVE",
"446 294 CURVE SMOOTH",
"446 273 OFFCURVE",
"462 257 OFFCURVE",
"483 257 CURVE SMOOTH"
);
},
{
closed = 1;
nodes = (
"305 455 OFFCURVE",
"321 471 OFFCURVE",
"321 491 CURVE SMOOTH",
"321 512 OFFCURVE",
"305 528 OFFCURVE",
"285 528 CURVE SMOOTH",
"264 528 OFFCURVE",
"248 512 OFFCURVE",
"248 491 CURVE SMOOTH",
"248 471 OFFCURVE",
"264 455 OFFCURVE",
"285 455 CURVE SMOOTH"
);
}
);
width = 569;
}
);
leftMetricsKey = "=H";
rightMetricsKey = "=H";
unicode = 002B;
},
{
glyphname = equal;
lastChange = "2020-01-20 10:59:39 +0000";
layers = (
{
backgroundImage = {
crop = "{{0, 0}, {58, 52}}";
imagePath = images/_equal.jpg;
locked = "1";
transform = "{11.71656, 0, 0, 11.71656, -96, -9}";
};
layerId = "15BDFF71-2BAF-4479-A38F-4FA7A571BE82";
paths = (
{
closed = 1;
nodes = (
"431 344 LINE",
"431 429 LINE",
"94 429 LINE",
"94 344 LINE"
);
},
{
closed = 1;
nodes = (
"116 148 OFFCURVE",
"135 167 OFFCURVE",
"135 191 CURVE SMOOTH",
"135 214 OFFCURVE",
"116 233 OFFCURVE",
"93 233 CURVE SMOOTH",
"69 233 OFFCURVE",
"50 214 OFFCURVE",
"50 191 CURVE SMOOTH",
"50 167 OFFCURVE",
"69 148 OFFCURVE",
"93 148 CURVE SMOOTH"
);
},
{
closed = 1;
nodes = (
"431 148 LINE",
"431 233 LINE",
"94 233 LINE",
"94 148 LINE"
);
},
{
closed = 1;
nodes = (
"116 344 OFFCURVE",
"135 363 OFFCURVE",
"135 387 CURVE SMOOTH",
"135 410 OFFCURVE",
"116 429 OFFCURVE",
"93 429 CURVE SMOOTH",
"69 429 OFFCURVE",
"50 410 OFFCURVE",
"50 387 CURVE SMOOTH",
"50 363 OFFCURVE",
"69 344 OFFCURVE",
"93 344 CURVE SMOOTH"
);
},
{
closed = 1;
nodes = (
"454 148 OFFCURVE",
"473 167 OFFCURVE",
"473 191 CURVE SMOOTH",
"473 214 OFFCURVE",
"454 233 OFFCURVE",
"431 233 CURVE SMOOTH",
"407 233 OFFCURVE",
"388 214 OFFCURVE",
"388 191 CURVE SMOOTH",
"388 167 OFFCURVE",
"407 148 OFFCURVE",
"431 148 CURVE SMOOTH"
);
},
{
closed = 1;
nodes = (
"454 344 OFFCURVE",
"473 363 OFFCURVE",
"473 387 CURVE SMOOTH",
"473 410 OFFCURVE",
"454 429 OFFCURVE",
"431 429 CURVE SMOOTH",
"407 429 OFFCURVE",
"388 410 OFFCURVE",
"388 387 CURVE SMOOTH",
"388 363 OFFCURVE",
"407 344 OFFCURVE",
"431 344 CURVE SMOOTH"
);
}
);
width = 523;
}
);
leftMetricsKey = "=H";
rightMetricsKey = "=H";
unicode = 003D;
},
{
glyphname = greater;
lastChange = "2020-01-20 10:59:39 +0000";
layers = (
{
backgroundImage = {
crop = "{{0, 0}, {73, 70}}";
imagePath = "images/_>.jpg";
locked = "1";
transform = "{10.51165, 0, 0, 10.51165, -171, -80}";
};
layerId = "15BDFF71-2BAF-4479-A38F-4FA7A571BE82";
paths = (
{
closed = 1;
nodes = (
"121 6 LINE",
"454 240 LINE SMOOTH",
"461 245 OFFCURVE",
"466 251 OFFCURVE",
"469 257 CURVE SMOOTH",
"472 263 OFFCURVE",
"474 270 OFFCURVE",
"474 277 CURVE SMOOTH",
"474 283 OFFCURVE",
"472 290 OFFCURVE",
"469 296 CURVE SMOOTH",
"466 302 OFFCURVE",
"461 308 OFFCURVE",
"454 313 CURVE SMOOTH",
"121 547 LINE",
"119 548 LINE",
"99 562 OFFCURVE",
"72 557 OFFCURVE",
"58 537 CURVE SMOOTH",
"44 517 OFFCURVE",
"48 489 OFFCURVE",
"68 475 CURVE SMOOTH",
"331 290 LINE SMOOTH",
"342 282 OFFCURVE",
"342 270 OFFCURVE",
"331 262 CURVE SMOOTH",
"68 78 LINE SMOOTH",
"48 64 OFFCURVE",
"44 36 OFFCURVE",
"58 16 CURVE SMOOTH",
"72 -4 OFFCURVE",
"99 -9 OFFCURVE",
"119 5 CURVE"
);
}
);
width = 524;
}
);
leftMetricsKey = "=H";
rightMetricsKey = "=H";
unicode = 003E;
},
{
glyphname = less;
lastChange = "2020-01-20 10:59:39 +0000";
layers = (
{
layerId = "15BDFF71-2BAF-4479-A38F-4FA7A571BE82";
paths = (
{
closed = 1;
nodes = (
"425 -9 OFFCURVE",
"452 -4 OFFCURVE",
"466 16 CURVE SMOOTH",
"480 36 OFFCURVE",
"476 64 OFFCURVE",
"456 78 CURVE SMOOTH",
"193 262 LINE SMOOTH",
"182 270 OFFCURVE",
"182 282 OFFCURVE",
"193 290 CURVE SMOOTH",
"456 475 LINE SMOOTH",
"476 489 OFFCURVE",
"480 517 OFFCURVE",
"466 537 CURVE SMOOTH",
"452 557 OFFCURVE",
"425 562 OFFCURVE",
"405 548 CURVE",
"403 547 LINE",
"70 313 LINE SMOOTH",
"63 308 OFFCURVE",
"58 302 OFFCURVE",
"55 296 CURVE SMOOTH",
"52 290 OFFCURVE",
"50 283 OFFCURVE",
"50 277 CURVE SMOOTH",
"50 270 OFFCURVE",
"52 263 OFFCURVE",
"55 257 CURVE SMOOTH",
"58 251 OFFCURVE",
"63 245 OFFCURVE",
"70 240 CURVE SMOOTH",
"403 6 LINE",
"405 5 LINE"
);
}
);
width = 524;
}
);
leftMetricsKey = "=H";
rightMetricsKey = "=H";
unicode = 003C;
},
{
glyphname = asciitilde;
lastChange = "2020-01-20 10:59:39 +0000";
layers = (
{
backgroundImage = {
crop = "{{0, 0}, {101, 46}}";
imagePath = images/_tilde.jpg;
locked = "1";
transform = "{8.98886, 0, 0, 8.98886, -175, 75}";
};
layerId = "15BDFF71-2BAF-4479-A38F-4FA7A571BE82";
paths = (
{
closed = 1;
nodes = (
"461 218 OFFCURVE",
"491 254 OFFCURVE",
"512 294 CURVE SMOOTH",
"533 334 OFFCURVE",
"479 358 OFFCURVE",
"462 322 CURVE SMOOTH",
"450 297 OFFCURVE",
"424 274 OFFCURVE",
"374 274 CURVE SMOOTH",
"306 274 OFFCURVE",
"283 339 OFFCURVE",
"185 339 CURVE SMOOTH",
"111 339 OFFCURVE",
"68 304 OFFCURVE",
"53 266 CURVE SMOOTH",
"37 226 OFFCURVE",
"85 204 OFFCURVE",
"108 245 CURVE SMOOTH",
"120 266 OFFCURVE",
"142 284 OFFCURVE",
"199 284 CURVE SMOOTH",
"265 284 OFFCURVE",
"305 218 OFFCURVE",
"374 218 CURVE SMOOTH"
);
}
);
width = 567;
}
);
leftMetricsKey = "=H";
rightMetricsKey = "=H";
unicode = 007E;
},
{
glyphname = asciicircum;
lastChange = "2020-01-20 10:59:39 +0000";
layers = (
{
backgroundImage = {
crop = "{{0, 0}, {79, 64}}";
imagePath = "images/_^.jpg";
locked = "1";
transform = "{6.70048, 0, 0, 6.67202, -32, 274}";
};
layerId = "15BDFF71-2BAF-4479-A38F-4FA7A571BE82";
paths = (
{
closed = 1;
nodes = (
"77 350 OFFCURVE",
"94 354 OFFCURVE",
"102 368 CURVE SMOOTH",
"224 580 LINE SMOOTH",
"229 589 OFFCURVE",
"241 589 OFFCURVE",
"246 580 CURVE SMOOTH",
"368 368 LINE SMOOTH",
"376 354 OFFCURVE",
"393 350 OFFCURVE",
"406 358 CURVE SMOOTH",
"419 366 OFFCURVE",
"424 382 OFFCURVE",
"416 396 CURVE SMOOTH",
"260 667 OFFCURVE",
"258 669 OFFCURVE",
"256 672 CURVE SMOOTH",
"251 679 OFFCURVE",
"243 682 OFFCURVE",
"235 682 CURVE SMOOTH",
"227 682 OFFCURVE",
"219 679 OFFCURVE",
"214 672 CURVE",
"54 396 LINE SMOOTH",
"46 382 OFFCURVE",
"51 366 OFFCURVE",
"64 358 CURVE SMOOTH"
);
}
);
width = 470;
}
);
leftMetricsKey = "=H";
rightMetricsKey = "=H";
unicode = 005E;
},
{
glyphname = percent;
lastChange = "2020-01-20 10:59:39 +0000";
layers = (
{
backgroundImage = {
crop = "{{0, 0}, {84, 77}}";
imagePath = images/_percent.jpg;
locked = "1";
transform = "{12.46753, 0, 0, 12.46753, -144, -160}";
};
layerId = "15BDFF71-2BAF-4479-A38F-4FA7A571BE82";
paths = (
{
closed = 1;
nodes = (
"125 29 OFFCURVE",
"152 29 OFFCURVE",
"169 46 CURVE SMOOTH",
"660 537 LINE SMOOTH",
"677 554 OFFCURVE",
"677 581 OFFCURVE",
"660 598 CURVE SMOOTH",
"643 615 OFFCURVE",
"616 615 OFFCURVE",
"599 598 CURVE SMOOTH",
"108 107 LINE SMOOTH",
"91 90 OFFCURVE",
"91 63 OFFCURVE",
"108 46 CURVE SMOOTH"
);
},
{
closed = 1;
nodes = (
"267 375 OFFCURVE",
"330 438 OFFCURVE",
"330 515 CURVE SMOOTH",
"330 592 OFFCURVE",
"267 655 OFFCURVE",
"190 655 CURVE SMOOTH",
"113 655 OFFCURVE",
"50 592 OFFCURVE",
"50 515 CURVE SMOOTH",
"50 438 OFFCURVE",
"113 375 OFFCURVE",
"190 375 CURVE SMOOTH"
);
},
{
closed = 1;
nodes = (
"153 447 OFFCURVE",
"122 478 OFFCURVE",
"122 515 CURVE SMOOTH",
"122 552 OFFCURVE",
"153 583 OFFCURVE",
"190 583 CURVE SMOOTH",
"227 583 OFFCURVE",
"258 552 OFFCURVE",
"258 515 CURVE SMOOTH",
"258 478 OFFCURVE",
"227 447 OFFCURVE",
"190 447 CURVE SMOOTH"
);
},
{
closed = 1;
nodes = (
"668 13 OFFCURVE",
"731 76 OFFCURVE",
"731 153 CURVE SMOOTH",
"731 230 OFFCURVE",
"668 293 OFFCURVE",
"591 293 CURVE SMOOTH",
"514 293 OFFCURVE",
"451 230 OFFCURVE",
"451 153 CURVE SMOOTH",
"451 76 OFFCURVE",
"514 13 OFFCURVE",
"591 13 CURVE SMOOTH"
);
},
{
closed = 1;
nodes = (
"554 85 OFFCURVE",
"523 116 OFFCURVE",
"523 153 CURVE SMOOTH",
"523 190 OFFCURVE",
"554 221 OFFCURVE",
"591 221 CURVE SMOOTH",
"627 221 OFFCURVE",
"659 190 OFFCURVE",
"659 153 CURVE SMOOTH",
"659 116 OFFCURVE",
"628 85 OFFCURVE",
"591 85 CURVE SMOOTH"
);
}
);
width = 781;
}
);
leftMetricsKey = "=H";
rightMetricsKey = "=H";
unicode = 0025;
},
{
glyphname = grave;
lastChange = "2020-01-20 10:59:39 +0000";
layers = (
{
backgroundImage = {
crop = "{{0, 0}, {47, 57}}";
imagePath = images/_galve.jpg;
locked = "1";
transform = "{5.69005, 0, 0, 5.69005, -12, 500}";
};
layerId = "15BDFF71-2BAF-4479-A38F-4FA7A571BE82";
paths = (
{
closed = 1;
nodes = (
"173 573 OFFCURVE",
"186 582 OFFCURVE",
"182 593 CURVE SMOOTH",
"178 605 OFFCURVE",
"135 680 OFFCURVE",
"112 718 CURVE SMOOTH",
"106 727 OFFCURVE",
"95 733 OFFCURVE",
"84 733 CURVE SMOOTH",
"65 733 OFFCURVE",
"50 718 OFFCURVE",
"50 700 CURVE SMOOTH",
"50 692 OFFCURVE",
"52 685 OFFCURVE",
"57 679 CURVE SMOOTH",
"74 659 OFFCURVE",
"124 606 OFFCURVE",
"146 582 CURVE SMOOTH",
"151 577 OFFCURVE",
"156 573 OFFCURVE",
"163 573 CURVE SMOOTH"
);
}
